<?xml version="1.0" standalone="no"?>
<!DOCTYPE svg PUBLIC "-//W3C//DTD SVG 1.1//EN" "http://www.w3.org/Graphics/SVG/1.1/DTD/svg11.dtd" >
<svg xmlns="http://www.w3.org/2000/svg">
<metadata></metadata>
<defs>
<font id="knights_questregular" horiz-adv-x="485" >
<font-face units-per-em="2048" ascent="1638" descent="-410" />
<missing-glyph horiz-adv-x="550" />
<glyph horiz-adv-x="0" />
<glyph unicode="&#xd;" horiz-adv-x="550" />
<glyph unicode=" "  horiz-adv-x="550" />
<glyph unicode="&#x09;" horiz-adv-x="550" />
<glyph unicode="&#xa0;" horiz-adv-x="550" />
<glyph unicode="!" horiz-adv-x="365" d="M37 866v120l73 -26v230h109v-230l83 23v-117l-60 23l-71 -645h-31l-55 644zM76 79q0 39 21 67q23 33 60 33t60 -33q20 -29 20 -68t-20 -68q-23 -32 -61 -32q-81 0 -80 101z" />
<glyph unicode="&#x22;" horiz-adv-x="561" d="M78 1046q0 39 29.5 64t69.5 25q111 0 111 -99q0 -84 -63 -176q-19 -28 -81 -84q-56 18 -56 42q10 15 37 74q28 62 27 72q-7 0 -17 2q-57 25 -57 80zM305 1046q0 39 29.5 64t69.5 25q110 0 110 -99q0 -85 -62 -176q-19 -28 -82 -84q-55 18 -56 42q12 18 37 74q28 61 28 72 q-7 0 -18 2q-57 25 -56 80z" />
<glyph unicode="#" horiz-adv-x="919" d="M34 282l44 128h181l69 208h-184l48 127h176l92 282h155l-94 -282h122l94 282h154l-95 -282h177l-45 -127h-173l-69 -208h170l-35 -128h-175l-94 -283h-155l96 283h-123l-94 -283h-154l95 283h-183zM412 410h123l68 208h-121z" />
<glyph unicode="$" horiz-adv-x="642" d="M-12 208l103 93q81 -114 109 -135q43 -31 139 -31v320l-137 86q-117 91 -117 208q0 217 239 243v211h127v-218q30 -4 51 -4q7 0 71 65q35 -76 88 -221l-65 -85q-70 79 -161 99v-266q105 -70 118 -81q116 -100 116 -222q0 -128 -107 -209q-51 -39 -111 -57v-138h-127v122 q-30 2 -97 21q-62 17 -96 17q-12 0 -43 -22q-14 -12 -45 -37q-21 83 -55 241zM244 750q0 -50 95 -114v210q-95 -12 -95 -96zM435 154q74 37 74 117q0 64 -74 121v-238z" />
<glyph unicode="%" horiz-adv-x="1113" d="M-7 832q0 121 67.5 193t187.5 72q121 0 189 -72q66 -70 66 -193q0 -125 -64 -194q-66 -72 -191 -73q-255 0 -255 267zM150 832q0 -137 100 -137q97 0 97 137q0 135 -97 135q-99 0 -100 -135zM187 -2l584 1138h158l-583 -1138h-159zM602 286q0 121 67.5 192.5t188.5 71.5 q120 0 188 -73q65 -69 65 -191q0 -267 -253 -268q-255 0 -256 268zM760 286q0 -137 98 -138q96 1 96 138q0 134 -96 134q-97 0 -98 -134z" />
<glyph unicode="&#x26;" horiz-adv-x="1320" d="M147 424q0 129 100 212q75 63 223 113q-110 74 -121 159q-2 15 -2 35q0 113 90 183q83 64 200 64q141 0 255 -97q3 -3 5 -3q1 0 0 1q0 5 -30 60.5t-30 70.5q0 6 5 6q28 -27 134 -119q77 -66 121 -120l-65 -79q-165 121 -364 121q-57 0 -104 -26q-55 -30 -55 -80 q0 -8 1 -13q9 -62 73 -96q53 -17 107 -38q74 -28 78 -65q3 -25 -18 -36q-10 -5 -45 -10q-177 -25 -258 -62q-137 -63 -137 -189q0 -19 3 -38q19 -134 188 -206q132 -56 284 -56q131 0 227 38q130 51 130 155q0 15 -1 25q-7 55 -62 93q-50 35 -109 35q-47 0 -85 -20 q-46 -24 -46 -67q0 -64 111 -112q5 -2 5 -6q0 -15 -30 -34t-46 -19q-84 0 -146 45q-65 48 -79 129q-2 12 -2 22q0 91 135 149l279 88q139 44 139 120q0 58 -106 57q-68 0 -62 -12q78 104 110 104q26 3 47 3q143 0 158 -107q2 -19 2 -35q0 -171 -182 -251q123 -76 130 -205 q1 -11 1 -25q0 -164 -182 -245q-139 -62 -339 -63q-200 0 -383 94q-221 113 -248 299q-4 28 -4 53z" />
<glyph unicode="'" horiz-adv-x="317" d="M65 1052q0 39 30 65q28 24 69 24q110 0 110 -100q0 -85 -62 -176q-19 -28 -82 -83q-56 18 -56 42q14 16 39.5 73t25.5 74q-1 1 -6 0q-7 -1 -12 1q-56 25 -56 80z" />
<glyph unicode="(" horiz-adv-x="997" d="M536 439q0 286 136 496q146 224 397 274l-2 -111q-210 -84 -295 -243q-78 -143 -78 -405q0 -261 70 -390q81 -147 292 -212v-119q-520 74 -520 710z" />
<glyph unicode=")" horiz-adv-x="1118" d="M536 1209q251 -50 397 -274q136 -210 136 -496q0 -636 -521 -710v119q212 66 293 212q70 129 70 390q0 262 -78 405q-86 158 -296 243z" />
<glyph unicode="*" horiz-adv-x="607" d="M36 981q28 -21 74 -32q40 -10 114 7l-89 84l-73 25q12 12 49.5 21.5t49.5 20.5q14 5 39 33.5t40 33.5q0 -24 -2 -73q18 -40 53 -103q7 9 48 93q-2 26 -15 86q20 -12 45 -46q27 -37 42.5 -48.5t56.5 -26.5q39 -14 56 -28q-20 0 -43 -7q-33 -11 -43 -13l-69 -73 q40 -2 116 -21l61 25q-2 -16 -20 -45.5t-20 -44.5q-7 -15 -6.5 -52.5t-7.5 -53.5l-45 61l-99 57q0 -20 7 -56q9 -45 11 -57q16 -20 51 -56q-18 -2 -53.5 12.5t-53.5 12.5q-9 2 -19 2q-14 0 -41 -7t-42 -7q-10 0 -20 3l54 56q-1 3 -1 6q0 17 6.5 51t6.5 51q-7 -3 -54 -25 q-43 -20 -46 -17q-15 -18 -41 -64q-10 20 -10 52v10q0 33 -11 52q-4 18 -28.5 50t-27.5 51z" />
<glyph unicode="+" horiz-adv-x="934" d="M-6 606q0 32 16 57q84 -97 143 -111h235v226q-6 26 -23 54q-30 50 -72 83q18 16 47 16q49 0 118 -55q5 -4 10 0q58 58 116 57q32 0 57 -16q-85 -74 -99 -145v-220h228q56 11 146 114q16 -25 16 -57q0 -57 -54 -113v-17q51 -66 51 -114q0 -29 -15 -47q-32 42 -83 73 q-32 20 -55 26h-234v-216q15 -68 99 -140q-24 -16 -57 -16q-59 0 -116 57h-11q-67 -54 -117 -55q-29 0 -47 16q43 32 72 83q16 27 23 54v217h-234q-18 -5 -59 -30q-52 -31 -83 -72q-16 18 -15 47q0 44 54 118l1 1v8h-1q-58 58 -57 117z" />
<glyph unicode="," horiz-adv-x="418" d="M106 35q0 39 31 64q28 24 68 25q111 -1 111 -100q0 -86 -62 -176q-18 -26 -83 -84q-55 18 -55 43q12 20 37 74q28 60 28 72q-7 0 -18 2q-57 25 -57 80z" />
<glyph unicode="-" horiz-adv-x="395" d="M67 378v70h290v-70h-290z" />
<glyph unicode="." horiz-adv-x="414" d="M118 85q0 41 30 67.5t71 26.5t71 -26.5t30 -67.5t-29.5 -67t-71.5 -26q-41 0 -71 26.5t-30 66.5z" />
<glyph unicode="/" horiz-adv-x="664" d="M-35 -1l580 1135h167l-573 -1135h-174z" />
<glyph unicode="0" horiz-adv-x="1139" d="M207 603q0 569 487 569q466 -1 466 -599q0 -288 -99 -432q-118 -171 -392 -171q-261 0 -373 188q-89 151 -89 445zM373 593q0 -259 43 -349q64 -135 274 -135q173 0 245 145q54 110 54 321q0 224 -48 322q-66 135 -249 134q-185 0 -259 -123q-60 -100 -60 -315z" />
<glyph unicode="1" horiz-adv-x="548" d="M98 3q43 32 71 68q16 20 31 60l18 46l-1 670q0 68 -59 78q-13 2 -48 0v40l311 172l-62 -117v-847q9 -51 45 -93q19 -23 85 -79q-28 -17 -68 -17q-68 0 -125 58h-10q-65 -54 -128 -54q-38 0 -60 15z" />
<glyph unicode="2" horiz-adv-x="889" d="M88 19q6 43 6 57q0 165 165 323l268 205q139 107 139 218q0 83 -68 138q-64 51 -149 51q-223 0 -221 -250l-103 -17q-8 68 -32 227l47 44q27 26 96 67q106 64 211 64q148 0 255 -83q117 -91 117 -235q0 -147 -147 -282l-265 -202q-114 -87 -144 -208h310q170 0 234 112 q21 -34 59 -73q-25 -51 -129 -199q-77 24 -132 24h-508q-12 0 -9 19z" />
<glyph unicode="3" horiz-adv-x="1065" d="M111 985q34 32 175 179q64 -64 293 -64q49 0 148 4.5t149 4.5l19 -29l-227 -220q-136 -135 -207 -237q246 -21 397 -134q167 -126 167 -336q0 -199 -155 -332q-148 -126 -350 -126q-154 0 -268 54q-139 65 -138 184q0 42 17 89l209 63q-68 -62 -69 -117q0 -64 88 -107 q75 -37 161 -37q141 0 246 83q112 90 112 228q0 14 -1 23q-12 152 -129 232q-93 63 -263 89l-285 41q49 62 205 227q143 152 201 228l-192 1q-93 0 -134 -9q-68 -14 -111 -61z" />
<glyph unicode="4" horiz-adv-x="1091" d="M6 262l668 878l102 60v-803h130q50 9 94 45q28 23 81 85q17 -27 17 -68q0 -68 -58 -125v-10q54 -65 54 -128q0 -38 -15 -60q-31 43 -68 71l-60 31l-45 23h-130v-88q9 -51 44 -93q19 -22 86 -79q-28 -17 -69 -17q-68 0 -125 58h-9q-65 -54 -128 -54q-38 0 -61 15 q42 30 71 68q14 17 32 60l10 54l-1 76zM290 397h336v461z" />
<glyph unicode="5" horiz-adv-x="1074" d="M127 -40q0 42 18 89l208 63q-68 -62 -68 -117q0 -69 95 -111q76 -33 154 -33q139 0 244 83q113 89 113 225q0 163 -119 248q-95 67 -270 95q-95 13 -287 39q0 60 1 279l1 300l347 2q213 9 264 53l182 -230l-91 -54q-65 58 -123 78q-48 16 -129 16q-28 0 -83 -1.5 t-83 -1.5h-119l-8 -319q266 -11 442 -113q223 -129 223 -370q0 -200 -155 -332q-147 -125 -350 -125q-143 0 -257 48q-150 64 -150 189z" />
<glyph unicode="6" horiz-adv-x="1102" d="M151 615q0 762 660 745l137 -200q-184 99 -191 98q-351 -47 -429 -336q-16 -61 -34 -222q29 58 89 101q93 68 230 74q208 9 341 -122q132 -131 132 -339q0 -462 -449 -462q-486 0 -486 663zM317 424q0 -156 80 -243q83 -91 236 -92q290 0 290 330q0 131 -74 218 q-79 93 -207 93q-149 0 -235 -78q-90 -81 -90 -228z" />
<glyph unicode="7" horiz-adv-x="982" d="M112 927q41 65 138 232q166 -62 549 -62q43 0 136 1l118 2l-28 -45q-654 -680 -654 -1030q0 -169 155 -169q56 0 56 -75q0 -77 -83 -94q-139 0 -217 88q-74 84 -74 226q0 240 177 515q79 123 343 438h-320q-65 0 -109 -26q-30 -18 -84 -75z" />
<glyph unicode="8" horiz-adv-x="995" d="M109 318q0 205 217 328q-94 68 -95 199q0 126 99 196q86 62 214 62q125 0 208 -59q96 -67 96 -189q0 -131 -107 -210q229 -120 229 -340q0 -162 -134 -256q-118 -82 -283 -81q-188 0 -305 77q-139 91 -139 273zM270 325q0 -223 271 -223t271 236q0 110 -85 167 q-73 49 -188 49t-188 -56q-81 -62 -81 -173zM391 851q0 -135 142 -134q157 -1 157 136q0 59 -44 93q-40 31 -100 31q-155 0 -155 -126z" />
<glyph unicode="9" horiz-adv-x="1148" d="M151 669q0 462 449 462q486 0 486 -663q0 -762 -660 -745l-136 200q183 -99 191 -98q351 47 428 335q16 60 34 223q-29 -56 -89 -100q-93 -69 -229 -75q-207 -9 -340.5 122t-133.5 339zM314 664q0 -131 74 -218q79 -93 207 -93q149 0 235 77q90 81 90 229q0 156 -79 243 q-83 91 -237 92q-290 0 -290 -330z" />
<glyph unicode=":" horiz-adv-x="364" d="M118 85q0 41 30 67.5t71 26.5t71 -26.5t30 -67.5t-29.5 -67t-71.5 -26q-41 0 -71 26.5t-30 66.5zM118 569q0 41 30 67.5t71 26.5t71 -26.5t30 -67.5t-29.5 -67t-71.5 -26q-41 0 -71 26.5t-30 66.5z" />
<glyph unicode=";" horiz-adv-x="364" d="M106 61q0 39 31 65q28 24 68 24q111 0 111 -100q0 -85 -62 -176q-19 -28 -83 -84q-55 18 -55 43q12 20 37 74q28 60 28 72q-7 0 -18 2q-57 25 -57 80zM118 569q0 41 30 67.5t71 26.5t71 -26.5t30 -67.5t-29.5 -67t-71.5 -26q-41 0 -71 26.5t-30 66.5z" />
<glyph unicode="&#x3c;" horiz-adv-x="827" d="M82 429v108l767 303l-75 -181l-430 -173l403 -171l102 -190z" />
<glyph unicode="=" horiz-adv-x="894" d="M52 336v117h826v-117h-826zM52 516v116h826v-116h-826z" />
<glyph unicode="&#x3e;" horiz-adv-x="825" d="M82 125l103 190l402 171l-429 173l-76 181l767 -303v-108z" />
<glyph unicode="?" horiz-adv-x="723" d="M20 969q7 -1 41 -13q26 -9 43 -8q20 0 23 14q15 95 98 160q77 60 166 60q119 0 206 -60q99 -68 99 -182q0 -102 -86 -200q-53 -62 -140 -168q-73 -89 -73 -191q0 -10 1 -30.5t1 -30.5q0 -89 -85 -89q-99 0 -99 111q0 123 78 248q21 33 146 190q79 99 79 157q0 49 -46 77 q-39 24 -90 24q-83 0 -131 -78q-41 -66 -41 -155q0 -16 3 -31l-166 169q-14 14 -27 26zM210 89q0 42 29.5 69.5t71.5 27.5t71 -28t29 -69q0 -42 -29 -69.5t-71 -27.5q-43 0 -72 27.5t-29 69.5z" />
<glyph unicode="@" horiz-adv-x="1126" d="M35 434q0 203 175.5 380.5t378.5 177.5q215 0 374 -168q157 -165 157 -381q0 -24 -46.5 -166t-60.5 -162l-30 -4q-18 0 -57 15t-58 15q-18 0 -54.5 -15t-54.5 -15q-24 0 -34 12q9 21 14 49l-25 15q-32 -9 -89 -31q-5 -2 -45 -28q-28 -18 -49 -18q-90 0 -170 114 q-74 106 -74 200q0 97 88 208q93 116 186 117q21 0 77 -22t88 -22l4 6l-16 25q28 -9 54 -26l55 23l7 -7q7 -38 7 -63q0 -56 -17 -167.5t-17 -167.5q0 -32 13 -80q15 -53 35 -69q175 24 174 154q0 280 -77 399q-97 150 -359 150q-439 0 -439 -450q0 -266 146 -374 q126 -93 405 -93q12 0 56 19q22 9 61 24l4 -8l-28 -49l26 -41l-2 -7q-10 -1 -23 0q-17 0 -39 1q-47 3 -62 3q-17 0 -53.5 -16t-54.5 -16q-212 0 -381.5 173t-169.5 386zM413 328q0 -59 45 -80q30 -15 98 -15q12 0 35 -5t34 -5q26 0 45 22l33 42q5 27 16 81q10 45 10 81 q0 32 -10 80q-15 68 -16 78q-9 8 -28 24t-32 16q-12 0 -32.5 -9t-31.5 -9q-102 -2 -134 -33q-26 -24 -26 -94q0 -14 0.5 -41.5t0.5 -40.5q0 -16 -3.5 -46t-3.5 -46z" />
<glyph unicode="A" horiz-adv-x="1120" d="M1 1q66 49 103 140l29 72l354 875q21 51 65 51q36 0 56 -45q51 -116 226 -548q47 -118 172 -405q39 -89 106 -140q-22 -15 -54 -15q-59 0 -125 54q-5 4 -8 0q-57 -56 -112 -56q-32 0 -55 17q47 41 62 82q2 9 10 54q0 7 -101 245h-359q-86 -213 -86 -245l9 -55 q15 -41 62 -81q-23 -18 -55 -18q-54 0 -111 56q-4 4 -10 0q-68 -54 -124 -54q-32 0 -54 16zM422 517l267 3q-16 41 -38 87q-83 175 -104 225z" />
<glyph unicode="B" horiz-adv-x="902" d="M77 0v86q54 7 66 11q33 13 34 52v847q0 37 -31 46q-13 4 -61 5v88h288q158 0 290 -60q170 -77 170 -215q0 -152 -180 -214q217 -159 217 -327q0 -156 -153 -245q-129 -74 -297 -74h-343zM333 613l1 -481q15 0 34 1q149 5 219 31q122 46 122 163q0 111 -136 204 q-68 46 -240 82zM333 750q76 -14 186 -14q55 0 101 27q54 31 54 84q0 81 -133 125q-97 32 -201 32q-7 1 -7 4v-258z" />
<glyph unicode="C" horiz-adv-x="1170" d="M105 541q0 229 176 394q160 150 398 191q32 5 70 5q146 0 280 -63q7 -3 13 -3q15 0 14 27q0 16 -4.5 46.5t-4.5 45.5l166 -330q-101 77 -190 108q-99 35 -244 35q-203 0 -351 -122q-157 -129 -157 -326q0 -191 150 -316q142 -118 334 -119q139 0 238 39q89 35 203 125 l43 -62q5 -7 -63 -64q-205 -175 -429 -175q-248 0 -440 156q-202 166 -202 408z" />
<glyph unicode="D" horiz-adv-x="1060" d="M70 0v93l36 8q13 3 58 41q14 28 19 223q2 75 2 190q0 76 -1 170l-3 254q-1 55 -94 72v84h138q871 0 871 -561q0 -267 -234 -430q-207 -144 -487 -144h-305zM332 995l4 1l4 -8v-854q235 1 396 99q194 118 194 339q0 233 -198 337q-138 72 -400 86z" />
<glyph unicode="E" horiz-adv-x="918" d="M87 -3v90q91 0 91 63v819q0 35 -18 67q-29 11 -69 18v82q62 0 184 -8t183 -8q246 0 306 66l119 -175l-46 -122q-39 70 -92 90q-39 15 -139 15h-267v-323h265q32 0 48 26q6 10 21 54h86v-305h-86q-14 37 -29 65q-33 18 -65 18h-240v-391q45 0 135 -7t136 -7q178 0 263 150 l30 -139l-109 -183q-16 22 -75 36q-47 11 -86 11z" />
<glyph unicode="F" horiz-adv-x="793" d="M74 2q42 31 74 81q25 39 29 62v860q0 43 -68 43q-9 0 -20 -1v90h545q50 0 73 7q30 9 63 39q23 -52 78 -202l-55 -88q-51 104 -155 104h-304v-307h260q22 4 61 30q49 32 80 74q16 -22 16 -55q0 -55 -55 -124q-4 -5 0 -9q59 -59 59 -121q0 -32 -15 -57q-95 111 -152 121 h-254l-2 -403q9 -55 123 -152q-27 -14 -61 -14q-72 0 -133 61q-4 4 -9 0q-65 -55 -123 -55q-32 0 -55 16z" />
<glyph unicode="G" horiz-adv-x="1256" d="M105 541q0 229 176 394q160 150 398 191q32 5 70 5q146 0 280 -63q7 -3 13 -3q15 0 14 27q0 16 -4.5 46.5t-4.5 45.5l166 -330q-101 77 -190 108q-99 35 -244 35q-203 0 -351 -122q-157 -129 -157 -326q0 -191 150 -316q142 -118 334 -119q205 0 360 105v244 q0 27 -103 27q-65 0 -91 -12q-29 -16 -57 -32q-55 -9 -152 -122q-13 27 -13 61q0 72 60 133q4 4 0 9q-54 65 -54 123q0 32 15 55q31 -41 83 -73q40 -24 64 -28h363v-333q0 14 5 -39v-7q0 -19 -8 -31q-16 -23 -54 -45q-199 -172 -426 -172q-248 0 -440 156q-202 166 -202 408 z" />
<glyph unicode="H" horiz-adv-x="1207" d="M76 2q41 30 74 81q26 40 30 62v845q-5 25 -26 62q-29 51 -70 82q22 16 54 16q59 0 125 -55q5 -4 8 0q61 61 132 61q35 0 62 -13q-112 -96 -121 -153v-268h530v264q-5 24 -27 62q-28 49 -69 81q22 16 54 15q59 0 124 -54q5 -4 9 0q61 61 132 61q35 0 62 -13 q-112 -96 -121 -153l-1 -843q12 -70 119 -162q-27 -13 -62 -13q-71 0 -132 61q-4 4 -9 0q-69 -55 -124 -55q-32 0 -54 15q41 30 71 81q24 39 28 62v451h-530l-2 -440q9 -58 116 -148q-27 -14 -61 -14q-70 0 -132 61q-4 4 -10 0q-68 -55 -124 -55q-32 0 -55 16z" />
<glyph unicode="I" horiz-adv-x="455" d="M64 -1q42 32 72 82q24 39 28 64v848q-4 22 -28 63q-31 51 -72 82q18 16 47 15q49 0 118 -55q5 -4 9 0q58 58 117 58q32 0 56 -16q-98 -85 -108 -149v-845q10 -64 108 -149q-24 -16 -56 -17q-59 0 -117 58q-4 4 -9 0q-68 -55 -118 -55q-29 0 -47 16z" />
<glyph unicode="J" horiz-adv-x="830" d="M22 159l96 93q74 72 143 163q-2 -13 -2 -81v-52q0 -75 42 -120.5t117 -45.5q163 0 163 170l2 701q-4 22 -29 61q-32 49 -74 81q22 16 55 15q59 0 124 -54q5 -4 8 0q61 60 133 61q34 0 61 -13q-112 -96 -121 -147v-718q0 -139 -92 -219q-89 -76 -230 -76q-110 0 -195 61 q-73 72 -80 165q-4 2 -9 2q-16 0 -62.5 -23.5t-49.5 -23.5z" />
<glyph unicode="K" horiz-adv-x="1141" d="M76 2q42 32 74 81q26 40 30 63l3 841q-4 22 -29 61q-32 49 -74 82q22 15 55 14q59 0 124 -54q5 -4 8 0q61 60 133 61q35 0 61 -13q-111 -95 -120 -148v-273l321 236q177 130 177 146h1q0 3 -98 35h293q52 0 61 -2q0 -9 -79 -75l-155 -128q-68 -56 -174 -133l-263 -190 l597 -475q69 -55 98 -131l-341 -1l114 40q0 5 -104 89q-184 148 -448 355l1 -337q9 -54 116 -145q-30 -17 -68 -17q-68 0 -126 57q-4 4 -9 0q-65 -55 -124 -55q-32 0 -55 16z" />
<glyph unicode="L" horiz-adv-x="906" d="M78 1130q22 16 54 16q55 0 124 -55q5 -4 9 0q61 61 132 61q35 0 62 -13q-112 -96 -121 -150l4 -757q0 -53 1 -107q0 -3 6 4t8 7h281q96 0 150 46q22 18 93 116l71 -125l-120 -239q-56 63 -134 63h-612v79q40 8 56 14q37 20 37 63l2 834q-5 23 -30 63q-32 49 -73 80z" />
<glyph unicode="M" horiz-adv-x="1321" d="M1 1q66 49 103 142q8 6 73 392q20 118 50 335l21 159q20 144 94 144q60 0 168 -152q14 -34 96 -207q98 -206 105 -227q74 150 203 441q14 32 64 81q64 64 114 65q75 0 96 -156l121 -875q36 -88 108 -142q-22 -16 -55 -15q-59 0 -124 55q-5 4 -9 0q-57 -57 -112 -57 q-32 0 -54 17q47 41 61 84q5 28 9 57q-8 190 -34 374l-53 380l-293 -697h-81q-111 246 -278 662l-110 -724l9 -55q15 -41 62 -81q-23 -18 -55 -18q-54 0 -111 56q-4 4 -10 0q-68 -54 -124 -54q-32 0 -54 16z" />
<glyph unicode="N" horiz-adv-x="1212" d="M79 0q41 30 73 82q25 41 29 62v835q0 51 -36 61l-57 14v80h311l479 -702l1 556q-4 22 -31 62q-33 50 -75 82q24 15 58 15h4q65 0 130 -55q5 -4 9 0q61 61 133 61q34 0 60 -13q-114 -98 -123 -152v-837q12 -66 112 -152q-27 -13 -62 -13q-71 0 -132 61q-4 4 -9 0 q-73 -58 -130 -59q-29 0 -48 13q42 32 73 84q24 41 29 65v32l-531 759v-795q12 -66 114 -154q-27 -13 -61 -13q-72 0 -133 60q-4 4 -9 0q-65 -55 -124 -55q-33 0 -54 16z" />
<glyph unicode="O" horiz-adv-x="1233" d="M106 603q0 264 163 418q160 150 425 151q273 0 429 -185q139 -165 139 -414q0 -107 -37 -218q-127 -385 -583 -385q-208 0 -349 124q-137 120 -174 328q-13 72 -13 167v14zM271 593q0 -484 419 -484q190 0 304 155q97 134 97 311q0 192 -95 317q-106 139 -304 139 q-106 0 -201 -45q-104 -49 -153 -134q-66 -114 -67 -259z" />
<glyph unicode="P" horiz-adv-x="829" d="M74 2q27 20 62 65q41 52 41 78v852q0 51 -94 51l8 87h137q248 0 420 -68q241 -96 241 -303q0 -257 -382 -266l-58 -1h-11q-58 0 -100 10q0 -45 -6.5 -133.5t-6.5 -133.5q0 -77 34 -135q28 -47 96 -105q-27 -16 -68 -16q-68 0 -126 57h-9q-65 -54 -123 -55q-36 0 -55 16z M331 991q0 -5 3.5 -16t3.5 -16v-316q16 3 20 3q26 0 77.5 -5t76.5 -5q99 0 147 19q73 30 73 117q0 102 -151 169q-123 54 -247 54q-2 -2 -3 -4z" />
<glyph unicode="Q" horiz-adv-x="1240" d="M106 603q0 264 163 418q160 150 425 151q273 0 429 -185q139 -165 139 -414q0 -107 -37 -218q-114 -348 -499 -381l-51 -422l-39 418q-208 2 -346 125q-135 120 -171 327q-13 73 -13 167v14zM271 593q0 -443 352 -481l-24 247l-175 -18v105l203 -22v256h120v-256l207 19 v-102l-181 19l-30 -248q160 20 259 163q89 131 89 300q0 192 -95 317q-106 139 -304 139q-106 0 -201 -45q-104 -49 -153 -134q-66 -114 -67 -259z" />
<glyph unicode="R" horiz-adv-x="1024" d="M75 1q42 31 74 81q25 39 29 62l3 791q0 106 -95 115v85h103q264 0 449 -68q267 -97 268 -314q0 -90 -63 -163q-58 -68 -149 -96l76 -188q43 -108 84 -184q24 -45 121 -121q-30 -17 -68 -17q-67 0 -125 57q-4 4 -8 0q-65 -55 -134 -55q-37 0 -65 16q41 31 71 79 q23 37 27 58q0 27 -63 167l-78 176l-97 8q-62 5 -96 17v-362q9 -53 117 -146q-30 -16 -68 -17q-68 0 -125 58q-4 4 -9 0q-66 -55 -124 -55q-33 0 -55 16zM337 994q2 -5 2 -352q9 -8 113 -18q96 -9 127 -9q70 0 117 40q52 43 52 111q0 101 -161 170q-130 56 -250 58z" />
<glyph unicode="S" horiz-adv-x="831" d="M32 215l101 90q87 -123 124 -150q59 -42 188 -42q88 0 148 47q66 51 66 136q0 104 -132 188q-50 32 -247 154q-133 102 -133 232q0 135 97 208q87 66 225 66q27 0 81.5 -8t81.5 -8q16 0 42 26l40 40q31 -66 90 -229l-59 -76q-106 119 -287 119q-66 0 -109 -35 q-47 -38 -48 -101q0 -73 134 -161q230 -150 248 -165q134 -113 134 -250q0 -142 -122 -234q-112 -84 -258 -84q-43 0 -127 22.5t-127 22.5q-20 0 -63 -30q-16 -14 -33 -28q-18 72 -55 250z" />
<glyph unicode="T" horiz-adv-x="1134" d="M9 903l192 286q77 -59 206 -59h427q127 0 219 61q56 -95 163 -287q-90 51 -143 69q-60 19 -157 19h-220v-848q0 -42 123 -147q-28 -17 -68 -17q-68 0 -126 58h-9q-65 -54 -128 -54q-38 0 -60 15q27 20 62 65q41 52 41 77v851h-233q-176 0 -289 -89z" />
<glyph unicode="U" horiz-adv-x="1296" d="M63 1134q24 16 58 15q58 0 127 -55q5 -4 9 0q61 61 132 61q35 0 62 -13q-114 -98 -123 -151v-601q0 -143 120 -214q97 -57 251 -57q272 0 343 168q12 29 12 62v649q-4 24 -30 65q-32 53 -74 84q26 16 62 16q65 0 130 -54q5 -4 9 0q61 60 133 60q34 0 61 -13 q-115 -99 -124 -152v-645q0 -182 -165 -287q-148 -94 -368 -94q-337 0 -470 216q-58 94 -58 192v606q-5 24 -27 61q-29 49 -70 81z" />
<glyph unicode="V" horiz-adv-x="1030" d="M-7 1119q22 16 54 16q56 0 124 -54q5 -4 10 0q58 56 111 56q32 0 55 -18q-47 -41 -62 -81q-1 -4 -10 -56q0 -43 279 -707q269 652 268 708q-8 43 -11 55q-14 41 -61 81q23 17 55 17q55 0 111 -56q4 -4 9 0q66 54 125 54q32 0 54 -15q-71 -54 -108 -138q-18 -30 -24 -44 q-9 -22 -35 -94l-80 -218q-50 -137 -248 -611q-19 -45 -58 -46q-40 0 -58 45q-178 433 -373 927q-45 116 -127 179z" />
<glyph unicode="W" horiz-adv-x="1486" d="M-7 1126q22 16 55 16q56 0 124 -54q5 -4 9 0q58 56 112 56q32 0 55 -18q-47 -41 -62 -81q-4 -29 -9 -56l307 -718l127 321q-16 38 -37 56l-38 26q32 22 55 22q26 0 50 -15q1 -1 53 -42q5 -4 9 0q58 56 112 56q32 0 55 -18q-19 -11 -56 -46q-9 -24 -13 -35l112 -321 l163 394q127 305 128 322q1 25 -11 53q-16 43 -61 82q23 17 55 17q55 0 111 -56q4 -4 9 0q66 54 125 54q32 0 54 -15q-69 -52 -107 -141l-411 -974q-18 -41 -56 -41q-44 0 -60 39q-53 129 -158 369q-60 -133 -156 -364q-17 -40 -57 -40h-2q-40 0 -57 40l-425 971 q-41 95 -104 141z" />
<glyph unicode="X" horiz-adv-x="1187" d="M16 0q135 137 488 610q-32 42 -135 191q-95 139 -139 194q-39 76 -122 135q26 18 54 19q81 0 143 -52q5 -5 10 0q58 56 111 56q32 0 55 -17q-47 -41 -62 -82l-10 -43v-11l189 -260q158 201 190 253q2 9 2 19q0 22 -12 41q-14 41 -61 82q23 17 55 17q55 0 111 -56 q4 -4 9 0q65 54 145 54q35 0 67 -22q-75 -57 -129 -128q-30 -30 -147 -199l-130 -186q250 -326 467 -615h-393l91 18q75 15 89 23q-47 72 -172 224l-179 220l-162 -216q-98 -131 -149 -224l170 -45h-444z" />
<glyph unicode="Y" horiz-adv-x="1033" d="M-4 1112q22 16 55 16q56 0 124 -55q5 -4 9 0q58 56 112 57q32 0 55 -18q-58 -50 -59 -87q0 -6 2 -13q49 -63 256 -339q259 326 259 331q1 9 1 16q0 43 -57 92q23 17 55 17q55 0 112 -56q4 -4 9 0q66 54 124 54q32 0 54 -15q-75 -57 -126 -143q-39 -51 -348 -449v-375 q62 -93 125 -148q-28 -17 -68 -17q-68 0 -126 58h-9q-65 -54 -128 -54q-38 0 -60 15q28 21 62 65q17 22 28 46q7 14 13 31l-2 374q-13 19 -264 361q-85 116 -140 174q-24 25 -68 62z" />
<glyph unicode="Z" horiz-adv-x="1019" d="M5 21l710 972h-417q-26 0 -88 -33q-60 -30 -81 -52l-62 81l147 201q51 -58 150 -58h653q-108 -140 -733 -997h385q118 0 153 13q49 18 107 96q35 -22 107 -73q-45 -73 -88 -126l-100 -124q-44 74 -124 75h-690z" />
<glyph unicode="[" horiz-adv-x="391" d="M127 -135v1270l214 41v-123l-91 -41v-1024l99 -41v-123z" />
<glyph unicode="\" horiz-adv-x="762" d="M-34 1134h167l579 -1135h-175z" />
<glyph unicode="]" horiz-adv-x="351" d="M38 1053v123l222 -41v-1270l-214 -41v123l91 41v1024z" />
<glyph unicode="^" horiz-adv-x="695" d="M89 476l237 480h115l239 -480h-160l-138 283l-134 -283h-159z" />
<glyph unicode="_" horiz-adv-x="808" d="M0 -114h866v-65h-866v65z" />
<glyph unicode="`" horiz-adv-x="408" d="M-7 1115l171 133l190 -309l-44 -42z" />
<glyph unicode="a" horiz-adv-x="904" d="M-11 16q46 35 69 71q12 20 39 88l256 632q19 47 61 47q37 0 56 -42q32 -71 162 -396q27 -68 124 -291q26 -61 89 -109q-38 -26 -66 -27q-45 0 -93 37q-42 -38 -84 -38q-28 0 -65 27q45 40 55 65q1 7 6 36q-1 5 -67 159h-237q-55 -137 -57 -159l6 -37q10 -24 55 -63 q-37 -28 -65 -29q-42 0 -85 39q-48 -37 -92 -38q-28 0 -67 28zM344 405l145 2q-9 22 -18 40q-43 89 -60 128z" />
<glyph unicode="b" horiz-adv-x="686" d="M58 0v93q24 3 57 9q14 5 14 22v610q0 15 -11 19q-7 2 -55 2v96h221q119 0 217 -46q125 -60 125 -168q0 -105 -112 -159q138 -112 138 -232q0 -122 -116 -190q-95 -56 -219 -56h-259zM271 438l1 -310h8q226 0 226 124q0 72 -89 134q-41 28 -146 52zM271 571q49 -8 117 -8 q33 0 60 16q33 18 33 48q0 48 -85 76q-60 20 -125 21v-153z" />
<glyph unicode="c" horiz-adv-x="911" d="M79 407q0 173 131 296q119 112 296 142q24 4 54 4q107 0 205 -45q-1 1 0 1q0 22 -3.5 67.5t-3.5 68.5l182 -364q-111 85 -166 110q-76 33 -193 33q-143 0 -243 -81q-107 -88 -107 -228q0 -133 102 -217q95 -79 231 -80q101 0 173 31q61 26 148 95l41 -59q2 -3 2 -6 q0 -19 -50 -62q-152 -131 -320 -131q-187 0 -329 117q-150 124 -150 308z" />
<glyph unicode="d" horiz-adv-x="835" d="M52 0v97l41 9q6 3 30 23q15 47 15 224v62q-1 104 -5 308q-1 26 -68 38v90h115q642 0 642 -421q0 -201 -176 -323q-153 -107 -358 -107h-236zM107 726l160 26l13 -18v-605q158 5 262 71q128 79 128 229q0 158 -133 228q-97 51 -430 69z" />
<glyph unicode="e" horiz-adv-x="750" d="M66 -3v98q64 0 64 29v592q0 18 -8 35q-18 6 -54 14v88q46 0 138.5 -5.5t138.5 -5.5q167 0 219 58l101 -151l-48 -130q-37 68 -65 85q-24 14 -101 14h-174v-201h172q16 0 21 13q4 9 16 45h89v-254h-88q-12 33 -21 52q-18 9 -36 9h-153v-251q20 -1 88 -6q51 -4 88 -4 q117 0 194 138l31 -149l-93 -159q-34 47 -116 47z" />
<glyph unicode="f" horiz-adv-x="693" d="M44 17q73 55 84 105v620q0 14 -32 15q-6 0 -30 -2v99h402q40 0 57 8q14 6 46 37q25 -60 67 -176l-59 -96q-25 53 -39 68q-24 25 -69 25h-199v-189h167q47 12 101 87q27 -39 27 -68q0 -43 -36 -92q39 -44 39 -91q0 -28 -24 -69q-76 91 -111 98h-163l-1 -273q7 -34 99 -116 q-44 -22 -72 -22q-53 0 -98 41q-45 -36 -88 -36h-2q-28 0 -66 27z" />
<glyph unicode="g" horiz-adv-x="969" d="M79 407q0 173 131 296q119 112 296 142q24 4 54 4q107 0 205 -45q-1 1 0 1q0 22 -3.5 67.5t-3.5 68.5l182 -364q-111 85 -166 110q-76 33 -193 33q-143 0 -243 -81q-107 -88 -107 -228q0 -133 102 -217q95 -79 231 -80q139 0 243 69v168q0 6 -15 5l-34 -1q-17 -1 -9 -1 q-42 0 -58 -7q-21 -12 -43 -24q-37 -6 -119 -102q-22 45 -22 73q0 53 41 100q-36 46 -36 90q0 30 26 70q55 -74 108 -86h277v-253q1 -5 4 -30v-8q0 -37 -32 -55l-21 -12q-148 -128 -316 -128q-187 0 -329 117q-150 125 -150 308z" />
<glyph unicode="h" horiz-adv-x="965" d="M46 16q74 55 86 106v607q-12 55 -81 106q38 27 67 27q45 0 92 -36q46 41 99 41q29 0 74 -22q-93 -81 -101 -115v-176h349v172q-12 53 -80 105q38 28 66 28q45 0 92 -37q46 41 99 41q30 0 75 -22q-93 -81 -101 -115l-1 -606q9 -45 100 -123q-45 -22 -74 -22q-53 0 -100 42 q-49 -37 -92 -37q-28 0 -66 27q71 53 82 105v308h-349v-300q7 -37 96 -113q-45 -22 -74 -22q-53 0 -99 41q-49 -37 -92 -37q-28 0 -67 27z" />
<glyph unicode="i" horiz-adv-x="400" d="M39 16q65 53 75 106v609q-11 53 -75 106q30 28 55 28q36 0 81 -37q40 39 81 39q26 0 62 -26q-74 -71 -82 -111v-607q8 -40 82 -111q-36 -26 -62 -27q-41 0 -81 39q-45 -37 -81 -37q-25 0 -55 29z" />
<glyph unicode="j" horiz-adv-x="738" d="M-7 114l97 96q52 51 139 167q-12 -75 -12 -158q0 -103 95 -103h2q100 0 100 106l2 505q-11 49 -85 104q38 27 66 27q44 0 91 -36q45 41 98 41q28 0 73 -22q-92 -81 -99 -111v-517q0 -105 -71 -168q-68 -62 -174 -62q-84 0 -150 48q-56 56 -61 115q-12 -5 -28 -13 q-35 -18 -83 -19z" />
<glyph unicode="k" horiz-adv-x="906" d="M46 17q74 57 86 106l2 604q-12 49 -86 105q39 26 68 26q44 0 91 -36q45 41 99 41q29 0 73 -22q-92 -80 -99 -111v-164l205 151q116 85 120 92l16 17q-3 -2 -6 -2q5 -6 5 -12q0 -7 -10 -12q2 -1 3 -3q-4 1 -10 4q-18 6 -156 50h316q39 0 59 -5q0 -32 -176 -175 q-56 -45 -124 -94l-171 -124l412 -330q54 -43 84 -124l-364 -1l151 54q-30 22 -58 43l-296 236l1 -208q7 -33 95 -109q-46 -26 -77 -26q-51 0 -95 39q-47 -37 -91 -37q-28 0 -67 27z" />
<glyph unicode="l" horiz-adv-x="728" d="M47 832q37 27 66 28q43 0 91 -38q45 41 99 42q28 0 73 -22q-93 -81 -100 -113l4 -600h194q63 0 97 29q12 10 78 102l67 -120l-99 -202q-51 58 -101 58h-452v87q39 8 50 12q17 11 17 30l1 602q-13 50 -85 105z" />
<glyph unicode="m" horiz-adv-x="1148" d="M-12 16q63 45 91 113q18 13 102 632q16 118 84 119q51 0 139 -121q0 -5 58 -128l72 -151q49 102 132 285q12 27 49 64q51 51 95 51q69 0 87 -127l87 -629q24 -59 89 -108q-38 -27 -67 -27q-45 0 -92 37q-42 -38 -84 -38h-2q-28 0 -65 28q45 39 55 65l6 38q-6 135 -55 483 l-194 -459h-81q-77 171 -184 434l-71 -462l6 -36q9 -24 55 -63q-37 -28 -65 -29q-43 0 -85 39q-49 -37 -93 -38q-29 0 -69 28z" />
<glyph unicode="n" horiz-adv-x="971" d="M47 16q73 53 86 106v601q0 24 -15 28l-52 14v86h248l321 -471l1 348q-12 49 -90 106q43 26 74 26q49 0 96 -36q46 41 100 41q28 0 73 -22q-95 -82 -102 -115l-1 -602q8 -41 95 -115q-45 -22 -74 -22q-53 0 -99 42q-51 -40 -97 -40q-26 0 -63 24q74 56 86 111v16l-350 502 v-521q9 -41 95 -117q-45 -22 -73 -22q-54 0 -100 41q-47 -37 -92 -37q-29 0 -67 28z" />
<glyph unicode="o" horiz-adv-x="959" d="M79 451q0 197 123 314q119 113 315 113h3q198 0 314 -126q112 -122 112 -322q0 -80 -27 -163q-95 -289 -434 -289h-2q-157 0 -263 93q-104 91 -131 247q-10 58 -10 133zM231 444q0 -334 287 -334q125 0 202 100q71 92 71 221q0 137 -67 221q-71 92 -202 92h-3 q-173 0 -242 -121q-45 -79 -46 -179z" />
<glyph unicode="p" horiz-adv-x="673" d="M45 18q22 17 50 47q34 37 34 55v615q0 20 -62 20h-6l7 96h113q181 0 308 -52q178 -72 178 -232q0 -126 -113 -174q-72 -31 -216 -35q-33 -1 -63 3l-6 -86q-3 -53 -3 -85q0 -58 29 -101q20 -28 75 -75q-42 -26 -76 -26q-49 0 -93 38q-45 -36 -89 -36h-2q-31 0 -65 28z M273 717q1 -5 2 -9v-209q14 -1 54 -5q34 -3 54 -3q63 0 92 11q48 17 48 71q0 63 -97 107q-79 35 -153 37z" />
<glyph unicode="q" horiz-adv-x="959" d="M79 447q0 198 123 316q119 115 315 115h3q199 0 315 -128q111 -123 111 -324q0 -81 -27 -165q-84 -258 -361 -288l-53 -447l-41 444q-152 6 -252 100q-96 91 -123 243q-10 59 -10 134zM231 440q0 -296 220 -332l-14 144l-128 -14v113l147 -16v185h119v-186l149 15v-111 l-132 14l-17 -143q102 21 161 119q55 88 55 198q0 137 -66 223q-72 95 -206 95q-72 0 -137 -31q-72 -34 -105 -92q-45 -79 -46 -181z" />
<glyph unicode="r" horiz-adv-x="819" d="M45 16q74 55 85 105l2 569q0 62 -68 69v92h90q195 0 331 -51q197 -74 197 -240q0 -141 -146 -197q41 -108 107 -251q13 -28 101 -98q-46 -26 -77 -26q-50 0 -93 38q-46 -36 -95 -36h-3q-30 0 -77 25q73 55 84 103q-2 19 -95 230q-37 3 -111 12v-238q7 -33 96 -110 q-46 -25 -77 -26q-50 0 -94 40q-47 -37 -90 -38q-29 0 -67 28zM276 716q1 -39 1 -227q12 -1 66 -6q68 -7 89 -7q43 0 74 25t31 68q0 62 -105 107q-82 36 -156 40z" />
<glyph unicode="s" horiz-adv-x="653" d="M22 177l92 83q70 -102 94 -119q38 -27 125 -27q58 0 95 29q41 32 41 87q0 66 -87 122q-38 24 -176 111q-101 80 -100 182q0 105 71 162q65 52 173 52q20 0 58 -5.5t58 -5.5q6 1 18 14l45 45q32 -70 77 -196l-59 -78q-84 95 -205 96q-95 0 -95 -83q0 -45 87 -103 q165 -110 178 -120q101 -88 101 -194q0 -112 -89 -182q-82 -64 -197 -64q-30 0 -90 16.5t-90 16.5q-9 0 -35 -19l-42 -35q-19 76 -48 215z" />
<glyph unicode="t" horiz-adv-x="926" d="M-48 592l206 307q66 -49 153 -50h309q87 0 163 51q50 -83 156 -274q-114 66 -151 77q-41 13 -109 13h-143v-596q0 -22 100 -108q-43 -26 -77 -27q-53 0 -97 42q-38 -39 -92 -39q-32 0 -72 26q24 18 51 48q35 38 35 56v598h-152q-66 0 -121 -23q-65 -27 -159 -101z" />
<glyph unicode="u" horiz-adv-x="1091" d="M35 836q41 26 71 26q45 0 94 -37q46 42 100 42q28 0 74 -22q-96 -82 -103 -115v-433q0 -179 254 -179q186 0 232 111q7 18 8 39v467q-11 53 -88 111q44 26 74 26q49 0 97 -36q45 40 97 40h2.5h3.5q28 0 71 -21q-96 -83 -103 -115v-465q0 -147 -135 -226 q-112 -66 -268 -66q-254 0 -354 165q-44 72 -44 147v435q-12 51 -83 106z" />
<glyph unicode="v" horiz-adv-x="898" d="M-17 824q39 27 67 27q44 0 92 -37q43 39 85 39q28 0 65 -29q-45 -39 -55 -63l-6 -37q3 -35 184 -467q175 426 177 467q-5 28 -7 36q-9 25 -54 65q37 27 65 27q42 0 84 -38q47 37 93 37q28 -1 66 -27q-66 -50 -91 -108q-13 -20 -41 -97l-58 -157q-30 -84 -179 -443 q-18 -43 -57 -43t-57 42q-91 219 -268 670q-31 79 -105 136z" />
<glyph unicode="w" horiz-adv-x="1258" d="M-17 829q39 27 68 27q45 0 94 -36q43 38 85 38q28 0 66 -28q-46 -39 -55 -64q-3 -18 -5 -34l206 -478l75 189q-8 19 -19 28l-48 31q48 32 70 33q29 0 78 -40q43 39 86 39q29 0 69 -31q-32 -19 -56 -41l-6 -17l66 -185q97 228 193 472q1 18 -6 31q-9 26 -55 67 q37 28 66 28q43 0 85 -38q47 36 92 36h2q28 0 67 -26q-65 -49 -90 -109l-301 -704q-17 -40 -56 -40q-43 0 -59 39q-38 91 -100 232q-40 -89 -98 -228q-16 -39 -58 -40q-40 0 -57 39l-310 702q-28 64 -89 108z" />
<glyph unicode="x" horiz-adv-x="954" d="M-11 0q123 125 371 456q-62 92 -191 270q-27 53 -103 106q43 29 67 30q59 0 107 -36q43 39 84 39q28 0 66 -28q-45 -39 -56 -64l-6 -29l121 -166q97 125 121 161q1 4 1 8q0 12 -7 23q-9 26 -56 67q36 27 63 27h2q43 0 85 -38q48 36 104 36h3q30 0 76 -31 q-70 -53 -108 -104q-22 -21 -106 -142l-86 -124q176 -230 349 -461h-316l-3 32q36 6 107 22q-35 50 -111 144l-116 142l-104 -138q-53 -70 -97 -143l224 -59h-485z" />
<glyph unicode="y" horiz-adv-x="894" d="M-14 820q38 26 67 26q43 0 92 -37q42 38 82 38h2q28 0 65 -28q-51 -45 -51 -63v-3q37 -47 170 -224l170 212q1 7 1 11q0 24 -51 67q38 28 65 28q43 0 85 -38q46 36 90 36h2q28 0 67 -26q-70 -53 -105 -113q-30 -39 -248 -321v-260q43 -63 101 -113q-43 -26 -77 -27 q-52 0 -97 42q-37 -39 -92 -39q-32 0 -72 26q60 43 86 107v261q-5 7 -188 257q-60 83 -99 124q-14 14 -65 57z" />
<glyph unicode="z" horiz-adv-x="835" d="M-2 27l500 690h-268q-22 0 -65 -27q-38 -23 -57 -43l-64 83l125 173q46 -52 109 -52h502q-96 -125 -528 -723h245q82 0 107 10q31 13 76 75q38 -24 102 -71q-40 -65 -72 -105l-86 -108q-40 66 -88 66h-501z" />
<glyph unicode="{" horiz-adv-x="1164" d="M-1 342q0 84 46 160q28 45 82 70.5t107 19.5q10 2 27 -4q20 -6 27 -6t14 3q-1 9 -13 11q-18 4 -19 5l-56 39q-45 51 -52 71q35 13 54 15q13 8 22 8t30 -22.5t31 -25.5l5 7q-14 16 -29 49q-22 9 -22 17q0 2 1 4q30 22 34 36q-12 14 -25 16q-3 3 -2 7q0 5 21 15q8 6 8 12 q0 4 -13.5 17.5t-11.5 17.5q23 9 29 9q12 5 13 15q0 4 -9 20.5t-8 23.5l126 -2v-5q-100 -41 -101 -140q1 -12 13 -40q44 -99 122 -106q-24 53 -32 83q1 11 -7 25l-2 83q-1 32 19 77q7 30 33 61q13 15 50 49v11q-15 7 -14 31q1 33 0 36q5 16 24 15q27 -2 32 0q14 -6 21 -7 q3 0 5 2q-2 23 -4 27h-1q-5 39 -43 65q-34 16 -76 16q-77 0 -124 -45q-35 -47 -35 -78q0 -6 1 -12q5 -23 9 -36l3 -22q-21 0 -80 -30q-32 -28 -31 -73q0 -16 4 -31h2q12 -47 13 -37q-2 -4 -13 -10q-13 -7 -17 -11q16 -7 33 -27q-17 -9 -27 -11q1 -10 18 -14q29 -7 31 -11 q0 -5 -10.5 -10.5t-11.5 -7.5q0 -4 8 -11t8 -9q0 -3 -2 -7q-20 -2 -46 11q-32 15 -42 16q-99 59 -99 174q0 20 2 33q16 108 138 146q3 12 3 26t-3 26q14 48 20 72q56 89 129 104q35 11 72 11q92 0 143 -52q16 -17 28 -29q1 -5 18 -39q12 -23 12 -42q2 -3 3 -7q1 -14 5 -16 q-5 -7 -5 -13q0 -4 2 -7h3q-2 -26 8 -34q37 10 77 10q125 0 203 -79q142 -58 288 -133q9 -15 10 -25q7 -78 -8 -128q-41 -129 -165 -227v-11l55 -34v-8q-58 -79 -89 -115q-4 -7 -34 -46q-20 -26 -28 -49q61 -137 94 -203q0 -7 7 -16v-11q-273 107 -463 135q-35 5 -129 10 q-81 4 -126 14q-68 -7 -97 -82q-2 -11 11 -23q30 26 97 60l-17 -37q-10 -22 -10 -40q0 -9 3 -19q7 5 38 31q23 19 45 23q-19 -43 -19 -72q0 -13 3 -25h2q0 -18 -6 -20q-148 29 -232 95q-89 55 -128 197q1 10 -7 23q-1 14 -1 27zM261 378q-15 -39 2 -61q14 -62 86 -94 q73 87 112 128q2 26 14 86q11 55 10 87q0 7 -22 26t-22 27q0 11 16 21q12 18 13 25q-1 5 -2 9l-18 22q-8 -7 -43 -22q-30 -13 -37 -29q-8 -12 -9 -30q0 -20 10 -46q43 -43 66 -43q11 -13 8 -47q-12 1 -43 9q-28 8 -44 6q-70 -1 -97 -74zM365 1103q20 40 84 39q24 0 46 -6 q-9 -26 -13 -27q-2 -3 -4 -4q-3 4 -10 8q-3 5 -7 5q-7 0 -18 -13l-9 7q-3 2 -6 2q-7 0 -7 -14l-22 5l-5 -14h-19q-12 0 -10 12zM450 828q-1 -6 10.5 -15.5t11.5 -12.5q0 -5 -6 -11q-1 -1 -8 -6.5t-7 -10.5q0 -3 1 -5q3 1 6 1q5 0 12.5 -7.5l8.5 -8.5q-1 -7 -12 -22t-10 -23 l6 -2q5 4 27 15l-1 45h-4q-3 18 -2 37q0 63 33 132q-12 6 -21 6q-5 0 -10 -2q9 -10 8 -29q-13 -3 -27 -18q0 -3 7 -16t7 -20q0 -4 -1 -7zM497 261l27 -18q-9 -13 -20 -12v-4q6 0 18.5 -3t18.5 -3q20 0 23 20q24 58 42 85q-64 9 -52 10q-24 0 -27 -21l40 -40q-45 -13 -70 -14 zM530 600q0 -7 3 -17q5 -18 26 -18q5 0 20 3q12 2 19 1l34 -31q20 38 23 46q0 7 -5 12l-33 40l-6 2q-4 0 -10 -4.5t-9 -5.5h-28q-35 0 -34 -28zM538 1078l3 3q-1 2 -3 4v-7zM546 811q-2 -17 14 -34q19 -22 23 -30q18 -33 69 -85q0 -4 -6 -14t-6 -13q0 -5 6 -10q5 -9 12 -8 q3 0 12.5 7.5t11.5 7.5q6 0 11 -13l-5 -11h3q-4 -3 -2 -10q3 -12 4 -13q160 -18 259 -67q4 1 12 -3t11 -4q5 0 8 7v4q-141 68 -281 76q-9 9 -10 19q0 12 14 26q18 18 19 22q41 44 95 82q35 24 109 73q-26 7 -40 6q-2 1 -2 4q1 -1 4 9h2v6q-19 -1 -33 8l6 13q-3 3 -11 4h-18 q-13 0 -13 9q0 4 2 8q-31 3 -33 8q0 1 4.5 4.5t3.5 6.5q-5 2 -10 2q-6 0 -18 -4.5t-18 -4.5q-5 0 -11 2q-1 1 0 5l10 14q-69 -39 -88 -53q-42 -32 -54 -78l40 14q1 -11 -7 -23q-12 -18 -13 -21l54 11q-12 -14 -24 -45q39 14 58 22q1 -4 1 -14l-28 -40q37 12 54 20 q-8 -22 -54 -67q-74 59 -101 119q-9 1 -18 13q-2 3 -12 21q1 6 2 9q1 -1 3 -1q-5 0 5 8q41 32 60 51q-18 -4 -45 -23q-11 -8 -41 -32zM560 474q1 -1 3 -1q5 0 12 11q-3 7 -10 3q-7 -5 -5 -13zM564 596q0 18 15 19q8 0 13 -7l-3 -25q-5 -1 -22 2q-3 5 -3 11zM587 376h16v19 q-3 1 -5 4q0 3 7.5 8.5t7.5 8.5q-1 4 -4 7q12 4 18 4q3 0 5 -1q-2 3 -2 7q0 18 16 15q3 1 6 1q5 0 12 -5.5t9 -6.5q1 11 -14 12q-20 3 -23 6h-18q-12 0 -12 -10q-11 -47 -19 -69zM614 234q3 -26 38 -32q5 -1 58 -14q41 -11 57 -10q28 -7 98 -32q60 -22 97 -29 q-34 87 -56 126q-151 50 -229 70q-7 -2 -17 -24t-18 -22q-6 0 -14 3q0 -5 4 -17t4 -17q-7 -4 -14 -4q-5 0 -8 2zM621 1012q26 -37 48 -40q-12 -22 -19 -32q25 -12 41 -15q47 17 68 29q2 2 2 5t-4 11.5t-4 12.5q0 9 14 12q10 0 15 -15t8 -15q4 0 9 2q3 -18 28 -34 q7 -4 41 -24q11 -3 57 -37q36 -26 61 -27q21 0 39 17l100 36l-2 8l-198 102q-26 1 -41 -2q-31 65 -144 85q-78 2 -112 -35q-7 -16 -7 -44zM625 495q-2 -10 21 -11l45 -2q16 26 20 58q-5 9 -18 10q-7 0 -18 -4l-13 -28q-5 -19 -12 -21q-22 0 -25 -2zM638 365q0 -3 2 -5v-5 q20 37 24 59l1 15q-2 -13 -13 -29q-14 -40 -14 -35zM652 254q0 16 14 17q4 0 7 -1q8 -10 8 -18q0 -14 -13 -14q-16 0 -16 16zM713 344q56 -16 88 -23q6 12 10 15h17q-7 13 -13 17q18 13 30 14q-9 5 -19 20l19 12q-58 29 -96 29q-32 -62 -36 -84zM713 1008q-1 2 0 4 q0 9 13 10q8 -9 8 -19q0 -4 -1 -7q-5 0 -7 -1q-16 5 -13 13zM753 229q0 18 14 17h7q7 -4 7 -23l-7 -8q-2 -3 -4 -2q-3 0 -5 1q-11 11 -12 15zM774 463q66 -21 102 -29q-10 30 -10 19q0 10 12 11q15 1 17 4q-1 3 -8.5 10t-7.5 12l27 12q-60 26 -88 26q-7 0 -15 -1l-29 -53 v-11zM816 969q18 16 32 16l95 -51q9 -9 43 -28q28 -15 36 -29q0 -5 -10 -8t-11 -7q-12 -1 -35.5 19t-36.5 19l-4 16q-5 2 -10 2q-4 0 -6 -2l-11 16q-26 0 -82 37zM841 198q0 2 1 4q7 20 20 17q4 0 6 -8t4 -9q-9 -17 -16 -17q-3 0 -6 2q1 3 -4 7zM868 302h11q3 9 22 36 q16 21 15 33q-2 1 -7 3t-7 2q-3 -1 -4 -5l-30 -58v-11zM916 731l2 -79q5 -3 12 -1t8 8q-9 2 -9 10q0 3 2.5 12t2.5 13q0 8 -7 13q3 9 2 14zM922 416q0 -9 16 -9q11 1 22 20.5t17 22.5l11 20q-3 0 -11 6t-11 6q-5 -1 -8 -3q-36 -52 -36 -63zM952 947q12 9 23 9q13 0 38 -18 q28 -20 38 -22q24 -11 24 -18q-17 -10 -38 -11q-30 18 -85 60zM966 635q9 -5 16 -5q12 0 12 8q0 2 -3.5 8t-2.5 11q-20 -9 -22 -22zM1022 747q1 -22 11 -56q5 0 14 -2.5t14 -2.5q11 0 14 11v7q-41 37 -52 61q-1 -13 -1 -18zM1120 778q3 -3 7 -2q5 0 9 5q1 9 9.5 28t8.5 28 q0 5 -2 8q-24 3 -25 -8q-5 -38 -7 -59z" />
<glyph unicode="|" horiz-adv-x="353" d="M173 -74v1271h77v-1271h-77z" />
<glyph unicode="}" horiz-adv-x="1164" d="M-1 893q-7 -78 8 -128q41 -129 165 -227v-11l-55 -34v-8q58 -79 89 -115q4 -7 34 -46q20 -26 28 -49q-61 -137 -94 -203q0 -7 -7 -16v-11q273 107 463 135q35 5 129 10q81 4 126 14q68 -7 97 -82q2 -11 -11 -23q-30 26 -97 60l17 -37q10 -22 10 -40q0 -9 -3 -19 q-7 5 -38 31q-23 19 -45 23q19 -43 19 -72q0 -13 -3 -25h-2q0 -18 6 -20q148 29 232 95q89 55 128 197q-1 10 7 23q1 14 1 27q0 84 -46 160q-28 45 -82 70.5t-107 19.5q-10 2 -27 -4q-20 -6 -27 -6t-14 3q1 9 13 11q18 4 19 5l56 39q45 51 52 71q-35 13 -54 15q-13 8 -22 8 t-30 -22.5t-31 -25.5l-5 7q14 16 29 49q22 9 22 17q0 2 -1 4q-30 22 -34 36q12 14 25 16q3 3 2 7q0 5 -21 15q-8 6 -8 12q0 4 13.5 17.5t11.5 17.5q-23 9 -29 9q-12 5 -13 15q0 4 9 20.5t8 23.5l-126 -2v-5q100 -41 101 -140q-1 -12 -13 -40q-44 -99 -122 -106q24 53 32 83 q-1 11 7 25l2 83q1 32 -19 77q-7 30 -33 61q-13 15 -50 49v11q15 7 14 31q-1 33 0 36q-5 16 -24 15q-27 -2 -32 0q-14 -6 -21 -7q-3 0 -5 2q2 23 4 27h1q5 39 43 65q34 16 76 16q77 0 124 -45q35 -47 35 -78q0 -6 -1 -12q-5 -23 -9 -36l-3 -22q21 0 80 -30q32 -28 31 -73 q0 -16 -4 -31h-2q-12 -47 -13 -37q1 -5 13 -10q14 -7 17 -11q-16 -7 -33 -27q17 -9 27 -11q-1 -10 -18 -14q-29 -7 -31 -11q0 -5 10.5 -10.5t11.5 -7.5q0 -4 -8 -11t-8 -9q0 -3 2 -7q20 -2 46 11q32 15 42 16q99 59 99 174q0 20 -2 33q-16 108 -138 146q-3 12 -3 26t3 26 q-14 48 -20 72q-56 89 -129 104q-35 11 -72 11q-92 0 -143 -52q-16 -17 -28 -29q-1 -5 -18 -39q-12 -23 -12 -42q-2 -3 -3 -7q-1 -14 -5 -16q5 -7 5 -13q0 -4 -2 -7h-3q2 -26 -8 -34q-37 10 -77 10q-125 0 -203 -79q-142 -58 -288 -133q-9 -15 -10 -25zM48 837q0 5 2 8 q24 3 25 -8q5 -38 7 -59q-3 -3 -7 -2q-5 0 -9 5q-1 9 -9.5 28t-8.5 28zM77 898l2 8l198 102q26 1 41 -2q31 65 144 85q78 2 112 -35q7 -16 7 -44q-26 -37 -48 -40q12 -22 19 -32q-25 -12 -41 -15q-47 17 -68 29q-2 2 -2 5t4 11.5t4 12.5q0 9 -14 12q-10 0 -15 -15t-8 -15 q-4 0 -9 2q-3 -19 -37 -39l-32 -19q-11 -3 -57 -37q-36 -26 -61 -27q-21 0 -39 17zM127 697v7q41 37 52 61q1 -13 1 -18q-1 -22 -11 -56q-5 0 -14 -2.5t-14 -2.5q-11 0 -14 11zM127 898q17 -10 38 -11q30 18 85 60q-12 9 -23 9q-14 0 -38 -18q-27 -20 -38 -22 q-24 -11 -24 -18zM180 877q0 -5 10 -8t11 -7q12 -1 35.5 19t36.5 19l4 16q5 2 10 2q4 0 6 -2l11 16q26 0 82 37q-18 16 -32 16l-95 -51q-9 -9 -43 -28q-28 -15 -36 -29zM208 638q0 2 3.5 8t2.5 11q20 -9 22 -22q-9 -5 -16 -5q-12 0 -12 8zM214 470q3 0 11 6t11 6q5 -1 8 -3 q35 -52 35 -63q0 -9 -15 -9q-11 1 -21 19q-12 20 -18 24zM219 518v4q141 68 281 76q9 9 10 19q0 12 -14 26q-18 18 -19 22q-41 44 -95 82q-35 24 -109 73q26 7 40 6q2 1 2 4q-1 -1 -4 9h-2v6q19 -1 33 8l-6 13q3 3 11 4h18q13 0 13 9q0 4 -2 8q31 3 33 8q0 1 -4.5 4.5 t-3.5 6.5q5 2 10 2q6 0 18 -4.5t18 -4.5q5 0 11 2q1 1 0 5l-10 14q69 -39 88 -53q42 -32 54 -78l-40 14q-1 -11 7 -23q12 -18 13 -21l-54 11q12 -14 24 -45q-39 14 -58 22q-1 -4 -1 -14l28 -40q-37 12 -54 20q8 -22 54 -67q74 59 101 119q9 1 18 13q2 3 12 21q-1 6 -2 9 q-1 -1 -3 -1q5 0 -5 8q-41 32 -60 51q18 -4 45 -23q11 -8 41 -32q2 -17 -14 -34q-19 -22 -23 -30q-18 -33 -69 -85q0 -4 6 -14t6 -13q0 -5 -6 -10q-5 -9 -12 -8q-4 0 -13 7.5t-11 7.5q-6 0 -11 -13l5 -11h-3q4 -3 2 -10q-3 -12 -4 -13q-160 -18 -259 -67q-4 1 -12 -3t-11 -4 q-5 0 -8 7zM240 117q34 87 56 126q151 50 229 70q7 -2 17 -24t18 -22q6 0 14 3q0 -5 -4 -17t-4 -17q7 -4 14 -4q5 0 8 2q-3 -26 -38 -32q-5 -1 -58 -14q-41 -11 -57 -10q-28 -7 -98 -32q-60 -22 -97 -29zM264 659q9 2 9 10q0 3 -2.5 12t-2.5 13q0 8 7 13q-3 9 -2 14l13 10 l-2 -79q-5 -3 -12 -1t-8 8zM286 371q2 1 7 3t7 2q3 -1 4 -5l30 -58v-11h-11q-3 9 -23 36q-16 21 -14 33zM296 502q60 26 88 26q7 0 15 -1l29 -53v-11q-66 -21 -102 -29q10 30 10 19q0 10 -12 11q-15 1 -17 4q1 3 8.5 10t7.5 12zM330 202q9 -17 16 -17q3 0 6 2q-1 3 4 7l5 4 q0 2 -1 4q-7 20 -20 17q-4 0 -6 -8t-4 -9zM357 367q9 5 19 20l-19 12q58 29 96 29q32 -62 36 -84q-56 -16 -88 -23q-6 12 -10 15h-17q7 13 13 17q-18 13 -30 14zM421 223l7 -8q2 -3 4 -2q3 0 5 1q11 11 12 15q0 18 -14 17h-7q-7 -4 -7 -23zM468 1003q0 -4 1 -7q5 0 7 -1 q16 5 13 13q1 2 0 4q0 9 -13 10q-8 -9 -8 -19zM491 540q5 9 18 10q7 0 18 -4l13 -28q5 -19 12 -21q22 0 25 -2q2 -10 -21 -11l-45 -2q-16 26 -20 58zM521 252q0 -14 13 -14q16 0 16 16t-14 17q-4 0 -7 -1q-8 -10 -8 -18zM529 437q-1 11 14 12q20 3 23 6h18q12 0 12 -10 q11 -47 19 -69h-16v19q3 1 5 4q0 3 -7.5 8.5t-7.5 8.5q1 4 4 7q-12 4 -18 4q-3 0 -5 -1q2 3 2 7q0 18 -16 15q-3 1 -6 1q-5 0 -12 -5.5t-9 -6.5zM537 429q2 -13 13 -29q14 -40 14 -35q0 -3 -2 -5v-5q-20 37 -24 59zM547 584q0 7 5 12l33 40l6 2q4 0 10 -4.5t9 -5.5h28 q35 0 34 -28q0 -7 -3 -17q-5 -18 -26 -18q-5 0 -18.5 2.5t-20.5 1.5l-34 -31q-20 38 -23 46zM596 326q64 9 52 10q24 0 27 -21l-40 -40q45 -13 70 -14l-27 -18q9 -13 20 -12v-4q-6 0 -18.5 -3t-18.5 -3q-20 0 -23 20q-24 58 -42 85zM610 608l3 -25q5 -1 22 2q3 5 3 11 q0 18 -15 19q-8 0 -13 -7zM627 484q3 7 10 3q7 -5 5 -13q-1 -1 -3 -1q-5 0 -12 11zM661 1081q1 2 3 4v-7zM686 934q12 6 21 6q5 0 10 -2q-9 -10 -8 -29q13 -3 27 -18q0 -3 -7 -16t-7 -20q0 -4 1 -7l29 -20q1 -6 -10.5 -15.5t-11.5 -12.5q0 -5 6 -11q1 -1 8 -6.5t7 -10.5 q0 -3 -1 -5q-3 1 -6 1q-5 0 -12.5 -7.5l-8.5 -8.5q1 -7 12 -22t10 -23l-6 -2q-5 4 -27 15l1 45h4q3 18 2 37q0 63 -33 132zM707 1136q9 -26 13 -27q2 -3 4 -4q3 4 10 8q3 5 7 5q7 0 18 -13l9 7q3 2 6 2q7 0 7 -14l22 5l5 -14h19q12 0 10 12q-20 40 -84 39q-24 0 -46 -6z M717 524q0 7 22 26t22 27q0 11 -16 21q-12 18 -13 25q1 5 2 9l18 22q8 -7 43 -22q30 -13 37 -29q8 -12 9 -30q0 -20 -10 -46q-43 -43 -66 -43q-11 -13 -8 -47q12 1 43 9q28 8 44 6q70 -1 97 -74q15 -39 -2 -61q-14 -62 -86 -94q-73 87 -112 128q-2 26 -14 86q-11 55 -10 87z " />
<glyph unicode="~" horiz-adv-x="758" d="M35 602q0 63 71 95q55 26 126 26q59 0 172.5 -32t172.5 -32q43 0 132 72l-2 -2q12 -40 12 -73q0 -128 -166 -128q-60 0 -174 32.5t-174 32.5q-49 0 -145 -65q-25 39 -25 74z" />
<glyph unicode="&#xa0;" />
<glyph unicode="&#xa1;" horiz-adv-x="375" d="M35 53l48 -23l55 644h31l71 -644l60 23v-117l-83 23v-230h-109v229l-73 -26v121zM74 839q0 100 80 100q37 0 61 -31q20 -29 20 -68t-20 -68q-23 -34 -60 -34t-60 34q-21 29 -21 67z" />
<glyph unicode="&#xa2;" />
<glyph unicode="&#xa3;" />
<glyph unicode="&#xa8;" horiz-adv-x="476" d="M30 1050l47 11l31 37l33 -35l48 -8l-15 -46l18 -46l-48 -10l-30 -39l-33 37l-49 7l15 46zM251 1056l48 10l30 39l33 -36l48 -8l-14 -46l18 -46l-48 -11l-30 -38l-33 36l-49 8l15 46z" />
<glyph unicode="&#xa9;" horiz-adv-x="1943" d="M-1 342q0 84 46 160q28 45 82 70.5t107 19.5q10 2 27 -4q20 -6 27 -6t14 3q-1 9 -13 11q-18 4 -19 5q-19 9 -50 35q-2 1 -6 4l-30 33q-16 20 -22 38q6 3 54 15q13 8 22 8t30 -22.5t31 -25.5l5 7q-14 14 -29 49q-22 9 -22 17q0 2 1 4q15 9 34 36q-12 14 -25 16q-3 3 -2 7 q0 5 21 15q8 6 8 12q0 4 -13.5 17.5t-11.5 17.5q24 9 29 9q12 5 13 15q0 4 -9 20.5t-8 23.5q5 1 126 -2v-5q-100 -41 -101 -140q1 -17 13 -40q36 -99 122 -106q-9 14 -18 41q-11 35 -14 42q1 11 -7 25l-2 83q-1 32 19 77q10 43 83 110v11q-15 7 -14 31q1 33 0 36q5 16 24 15 q27 -2 32 0q14 -6 21 -7q3 0 5 2q1 10 -4 27h-1q-5 39 -43 65q-34 16 -76 16q-77 0 -124 -45q-35 -47 -35 -78q0 -20 10 -48l3 -22q-21 0 -80 -30q-32 -28 -31 -73q0 -16 4 -31h2q1 -4 12 -34q1 -2 1 -3q-2 -4 -13 -10q-13 -7 -17 -11q16 -6 33 -27q-9 -2 -27 -11 q1 -10 18 -14q30 -7 31 -11q0 -5 -10.5 -10.5t-11.5 -7.5q0 -4 8 -11t8 -9q0 -3 -2 -7q-20 -2 -46 11q-32 15 -42 16q-99 59 -99 174q0 20 2 33q16 108 138 146q3 12 3 26t-3 26q5 25 20 72q56 89 129 104q35 11 72 11q91 0 143 -52q6 -7 28 -29q14 -24 30 -81q-1 -10 8 -23 q-7 -2 -4 -11q3 -8 1 -9h3q-2 -26 8 -34q37 10 77 10q125 0 203 -79q142 -58 288 -133q1 -11 10 -25q7 -79 -8 -128q-41 -129 -165 -227v-11l55 -34v-8q-16 -18 -89 -115q-30 -41 -62 -95q32 -67 94 -203q-1 -7 7 -16v-11q-274 108 -463 135q-88 3 -255 24q-68 -7 -97 -82 q-2 -11 11 -23q41 32 46 36q28 19 51 24q-1 -3 -17 -37q-10 -22 -10 -40q0 -9 3 -19q7 5 38 31q23 19 45 23q-19 -43 -19 -72q0 -13 3 -25h2q0 -18 -6 -20q-148 29 -232 95q-89 55 -128 197q1 10 -7 23q-1 14 -1 27zM261 378q-15 -39 2 -61q14 -62 86 -94q31 41 112 128 q2 26 14 86q11 55 10 87q0 7 -22 26t-22 27q0 11 16 21q13 20 13 25q-1 5 -2 9l-18 22q-8 -7 -43 -22q-30 -13 -37 -29q-8 -12 -9 -30q0 -20 10 -46q43 -43 66 -43q11 -13 8 -47q-12 1 -43 9q-28 8 -44 6q-70 -1 -97 -74zM365 1103q20 40 84 39q24 0 46 -6q-1 -14 -13 -27 q-2 -5 -4 -4q-3 4 -10 8q-3 5 -7 5q-7 0 -18 -13l-9 7q-3 2 -6 2q-7 0 -7 -14l-22 5l-5 -14h-19q-12 0 -10 12zM450 828q-1 -6 10.5 -15.5t11.5 -12.5q0 -5 -6 -11q-1 -1 -8 -6.5t-7 -10.5q0 -3 1 -5q3 1 6 1q5 0 12.5 -7.5l8.5 -8.5q-1 -6 -12 -21.5t-10 -23.5l6 -2 q5 4 27 15l-1 45h-4q-3 18 -2 37q0 63 33 132q-12 6 -21 6q-5 0 -10 -2q9 -10 8 -29q-13 -3 -27 -18q0 -3 7 -16t7 -20q0 -4 -1 -7q-11 -4 -29 -20zM497 261l27 -18q-9 -13 -20 -12v-4q6 0 18.5 -3t18.5 -3q17 0 42 63q19 30 23 42q-64 9 -52 10q-24 0 -27 -21 q15 -14 40 -40q-11 -6 -34 -8q-26 -2 -36 -6zM529 604q0 -9 4 -21q5 -18 26 -18q7 0 20 2t19 2l34 -31q22 42 23 46q0 7 -5 12l-33 40l-6 2q-4 0 -10 -4.5t-9 -5.5h-28q-35 0 -35 -24zM538 1078q3 2 3 3q-1 2 -3 3v-6zM546 811q-2 -17 14 -34q19 -22 23 -30q18 -33 69 -85 q0 -4 -6 -14t-6 -13q0 -5 6 -10q5 -9 12 -8q3 0 12.5 7.5t11.5 7.5q6 0 11 -13l-5 -11h3q-4 -3 -2 -10q3 -12 4 -13q160 -18 259 -67q4 1 12 -3t11 -4q5 0 8 7v4q-141 68 -281 76q-9 9 -10 19q0 12 14 26q18 18 19 22q39 42 95 82q21 15 109 73q-16 1 -39 6q-5 2 -3 6 q3 5 4 7h2v6q-19 -1 -33 8l6 13q-4 1 -33 5q-9 1 -9 8q0 4 2 8q-13 -2 -32 4q-1 2 -1 4q0 1 4.5 4.5t3.5 6.5q-5 2 -10 2q-6 0 -18 -4.5t-18 -4.5q-5 0 -11 2q-1 2 0 5l10 14q-69 -39 -88 -53q-42 -32 -54 -78l40 14q1 -11 -7 -23q-12 -18 -13 -21q17 5 54 11 q-12 -14 -24 -45q19 7 58 22q1 -4 1 -14q-11 -12 -28 -40q17 9 54 20q-6 -17 -54 -67q-74 59 -101 119q-12 1 -30 34q-1 4 2 9q2 -1 3 -1q-5 0 5 8q41 32 60 51q-22 -5 -86 -55zM560 474q1 -1 3 -1q5 0 12 11q-3 7 -10 3q-7 -5 -5 -13zM564 596q0 18 15 19q8 0 13 -7 q1 -9 -3 -25q-7 0 -22 2q-3 5 -3 11zM587 376h16v19q-3 1 -5 4q0 3 7.5 8.5t7.5 8.5q-1 4 -4 7q12 4 18 4q3 0 5 -1q-2 3 -2 7q0 18 16 15q3 1 6 1q5 0 12 -5.5t9 -6.5q1 11 -14 12q-20 3 -23 6h-18q-12 0 -12 -10q-9 -22 -19 -69zM614 234q3 -26 38 -32l59 -8q5 -2 27 -11 q16 -6 29 -5q64 -24 195 -61q-7 29 -25 65l-31 61q-68 28 -229 70q-7 -2 -17 -24t-18 -22q-6 0 -14 3q0 -5 4 -17t4 -17q-2 -6 -10 -4q-9 3 -12 2zM621 1012q14 -20 19 -25q13 -13 29 -15q-8 -11 -19 -32q14 -5 41 -15q22 12 68 29q2 2 2 5t-4 11.5t-4 12.5q0 9 14 12 q10 0 15 -15t8 -15q4 0 9 2q3 -18 28 -34q7 -4 41 -24q11 -3 57 -37q36 -26 61 -27q21 0 39 17l100 36l-2 8q-65 34 -198 102q-14 -3 -41 -2q-31 65 -144 85q-78 2 -112 -35q-7 -16 -7 -44zM625 495q-2 -10 21 -11l45 -2q16 26 20 58q-5 9 -18 10q-7 0 -18 -4l-13 -28 q-1 -9 -12 -21q-22 0 -25 -2zM638 365q0 -3 2 -5v-5q9 9 14 28q8 28 10 31l1 15q-1 -13 -13 -29q-14 -40 -14 -35zM652 254q0 16 14 17q4 0 7 -1q8 -10 8 -18q0 -14 -13 -14q-16 0 -16 16zM713 344l88 -23q1 7 10 15h17q-5 6 -13 17q13 5 30 14q-9 3 -19 20l19 12 q-58 29 -96 29q-16 -26 -36 -84zM713 1008q-1 3 0 4q0 9 13 10q8 -9 8 -19q0 -4 -1 -7q-5 0 -7 -1q-16 5 -13 13zM753 229q0 18 14 17h7q7 -4 7 -23l-7 -8q-2 -3 -4 -2q-3 1 -5 1q-11 11 -12 15zM774 463q34 -9 102 -29q-10 30 -10 19q0 11 19 11q7 0 10 4q-1 3 -8.5 10 t-7.5 12l27 12q-60 26 -88 26q-7 0 -15 -1q-8 -19 -29 -53v-11zM816 969q2 9 14 11q16 2 18 5l95 -51q37 -20 79 -57q0 -5 -10 -8t-11 -7q-12 -1 -35.5 19t-36.5 19l-4 16q-5 2 -10 2q-4 0 -6 -2l-11 16q-22 0 -44 13zM841 198q0 2 1 4q7 20 20 17q4 0 6 -8t4 -9 q-9 -17 -16 -17q-3 0 -6 2q1 3 -4 7zM868 302h11q3 9 22 36q16 21 15 33l-11 4q-1 1 -3 1q-3 -1 -4 -5l-30 -58v-11zM916 731l2 -79q5 -3 12 -1t8 8q-9 2 -9 10q0 3 2.5 12t2.5 13q0 8 -7 13q1 5 2 14zM923 416q0 -9 15 -9q11 1 22 20.5t17 22.5l11 20q-3 0 -11 6t-11 6 q-5 -1 -8 -3q-9 -20 -33 -56q-1 -4 -2 -7zM952 947q12 9 23 9q13 0 38 -18q28 -20 38 -22q24 -11 24 -18q-17 -10 -38 -11q-30 18 -85 60zM966 635q3 -7 11 -4t13 1q4 3 4 6q0 2 -3.5 8t-2.5 11q-20 -9 -22 -22zM1022 747q0 -21 11 -56q5 0 14 -2.5t14 -2.5q11 0 14 11v7 q-20 18 -52 61q1 -6 -1 -18zM1120 778q3 -3 7 -2q5 0 9 5q1 9 9.5 28t8.5 28q0 5 -2 8q-24 3 -25 -8q-1 -20 -7 -59zM1339 692q0 187 51 366q73 256 215 256q106 0 184 -170q82 -179 82 -452q0 -165 -35 -309q-24 -98 -46 -147q-14 -30 -51 -80q-62 -83 -134 -82 q-141 0 -214 254q-51 179 -52 364zM1408 692q0 -144 36 -272q53 -191 161 -191q107 0 161 191q36 130 36 272q0 131 -28 242q-58 225 -169 225q-109 0 -161 -192q-35 -128 -36 -275zM1459 692q0 120 24 214q37 148 125 148q96 0 130 -233l-64 -38q-25 126 -67 126 q-74 0 -75 -220q0 -214 71 -214q35 0 53 56q11 33 20 105l67 -47q-25 -212 -95 -255q-13 -8 -43 -8q-85 0 -122 150q-24 96 -24 216z" />
<glyph unicode="&#xab;" />
<glyph unicode="&#xad;" horiz-adv-x="395" d="M67 378v70h290v-70h-290z" />
<glyph unicode="&#xae;" horiz-adv-x="1925" d="M-1 342q0 84 46 160q28 45 82 70.5t107 19.5q10 2 27 -4q20 -6 27 -6t14 3q-1 9 -13 11q-18 4 -19 5l-56 39q-45 51 -52 71q35 13 54 15q13 8 22 8t30 -22.5t31 -25.5l5 7q-14 16 -29 49q-22 9 -22 17q0 2 1 4q30 22 34 36q-12 14 -25 16q-3 3 -2 7q0 5 21 15q8 6 8 12 q0 4 -13.5 17.5t-11.5 17.5q23 9 29 9q12 5 13 15q0 4 -9 20.5t-8 23.5l126 -2v-5q-100 -41 -101 -140q1 -12 13 -40q44 -99 122 -106q-24 53 -32 83q1 11 -7 25l-2 83q-1 32 19 77q7 30 33 61q13 15 50 49v11q-15 7 -14 31q1 33 0 36q5 16 24 15q27 -2 32 0q14 -6 21 -7 q3 0 5 2q-2 23 -4 27h-1q-5 39 -43 65q-34 16 -76 16q-77 0 -124 -45q-35 -47 -35 -78q0 -6 1 -12q5 -23 9 -36l3 -22q-21 0 -80 -30q-32 -28 -31 -73q0 -16 4 -31h2q12 -47 13 -37q-2 -4 -13 -10q-13 -7 -17 -11q16 -7 33 -27q-17 -9 -27 -11q1 -10 18 -14q30 -7 31 -11 q0 -5 -10.5 -10.5t-11.5 -7.5q0 -4 8 -11t8 -9q0 -3 -2 -7q-20 -2 -46 11q-32 15 -42 16q-99 59 -99 174q0 20 2 33q16 108 138 146q3 12 3 26t-3 26q14 48 20 72q56 89 129 104q35 11 72 11q92 0 143 -52q16 -17 28 -29q1 -5 18 -39q12 -23 12 -42q2 -3 3 -7q1 -14 5 -16 q-5 -7 -5 -13q0 -4 2 -7h3q-2 -26 8 -34q37 10 77 10q125 0 203 -79q142 -58 288 -133q9 -15 10 -25q7 -78 -8 -128q-41 -129 -165 -227v-11l55 -34v-8q-58 -79 -89 -115q-4 -7 -34 -46q-20 -26 -28 -49q61 -137 94 -203q0 -7 7 -16v-11q-273 107 -463 135q-35 5 -129 10 q-81 4 -126 14q-68 -7 -97 -82q-2 -11 11 -23q30 26 97 60l-17 -37q-10 -22 -10 -40q0 -9 3 -19q7 5 38 31q23 19 45 23q-19 -43 -19 -72q0 -13 3 -25h2q0 -18 -6 -20q-148 29 -232 95q-89 55 -128 197q1 10 -7 23q-1 14 -1 27zM261 378q-15 -39 2 -61q14 -62 86 -94 q73 87 112 128q2 26 14 86q11 55 10 87q0 7 -22 26t-22 27q0 11 16 21q12 18 13 25q-1 5 -2 9l-18 22q-8 -7 -43 -22q-30 -13 -37 -29q-8 -12 -9 -30q0 -20 10 -46q43 -43 66 -43q11 -13 8 -47q-12 1 -43 9q-28 8 -44 6q-70 -1 -97 -74zM365 1103q20 40 84 39q24 0 46 -6 q-9 -26 -13 -27q-2 -3 -4 -4q-3 4 -10 8q-3 5 -7 5q-7 0 -18 -13l-9 7q-3 2 -6 2q-7 0 -7 -14l-22 5l-5 -14h-19q-12 0 -10 12zM450 828q-1 -6 10.5 -15.5t11.5 -12.5q0 -5 -6 -11q-1 -1 -8 -6.5t-7 -10.5q0 -3 1 -5q3 1 6 1q5 0 12.5 -7.5l8.5 -8.5q-1 -7 -12 -22t-10 -23 l6 -2q5 4 27 15l-1 45h-4q-3 18 -2 37q0 63 33 132q-12 6 -21 6q-5 0 -10 -2q9 -10 8 -29q-13 -3 -27 -18q0 -3 7 -16t7 -20q0 -4 -1 -7zM497 261l27 -18q-9 -13 -20 -12v-4q6 0 18.5 -3t18.5 -3q20 0 23 20q24 58 42 85q-64 9 -52 10q-24 0 -27 -21l40 -40q-45 -13 -70 -14 zM530 600q0 -7 3 -17q5 -18 26 -18q5 0 20 3q12 2 19 1l34 -31q20 38 23 46q0 7 -5 12l-33 40l-6 2q-4 0 -10 -4.5t-9 -5.5h-28q-35 0 -34 -28zM538 1078l3 3q-1 2 -3 4v-7zM546 811q-2 -17 14 -34q19 -22 23 -30q18 -33 69 -85q0 -4 -6 -14t-6 -13q0 -5 6 -10q5 -9 12 -8 q3 0 12.5 7.5t11.5 7.5q6 0 11 -13l-5 -11h3q-4 -3 -2 -10q3 -12 4 -13q160 -18 259 -67q4 1 12 -3t11 -4q5 0 8 7v4q-141 68 -281 76q-9 9 -10 19q0 12 14 26q18 18 19 22q41 44 95 82q35 24 109 73q-26 7 -40 6q-2 1 -2 4q1 -1 4 9h2v6q-19 -1 -33 8l6 13q-3 3 -11 4h-18 q-13 0 -13 9q0 4 2 8q-31 3 -33 8q0 1 4.5 4.5t3.5 6.5q-5 2 -10 2q-6 0 -18 -4.5t-18 -4.5q-5 0 -11 2q-1 1 0 5l10 14q-69 -39 -88 -53q-42 -32 -54 -78l40 14q1 -11 -7 -23q-12 -18 -13 -21l54 11q-12 -14 -24 -45q39 14 58 22q1 -4 1 -14l-28 -40q37 12 54 20 q-8 -22 -54 -67q-74 59 -101 119q-9 1 -18 13q-2 3 -12 21q1 6 2 9q1 -1 3 -1q-5 0 5 8q41 32 60 51q-18 -4 -45 -23q-11 -8 -41 -32zM560 474q1 -1 3 -1q5 0 12 11q-3 7 -10 3q-7 -5 -5 -13zM564 596q0 18 15 19q8 0 13 -7l-3 -25q-5 -1 -22 2q-3 5 -3 11zM587 376h16v19 q-3 1 -5 4q0 3 7.5 8.5t7.5 8.5q-1 4 -4 7q12 4 18 4q3 0 5 -1q-2 3 -2 7q0 18 16 15q3 1 6 1q5 0 12 -5.5t9 -6.5q1 11 -14 12q-20 3 -23 6h-18q-12 0 -12 -10q-11 -47 -19 -69zM614 234q3 -26 38 -32q5 -1 58 -14q41 -11 57 -10q28 -7 98 -32q60 -22 97 -29 q-34 87 -56 126q-151 50 -229 70q-7 -2 -17 -24t-18 -22q-6 0 -14 3q0 -5 4 -17t4 -17q-7 -4 -14 -4q-5 0 -8 2zM621 1012q26 -37 48 -40q-12 -22 -19 -32q25 -12 41 -15q47 17 68 29q2 2 2 5t-4 11.5t-4 12.5q0 9 14 12q10 0 15 -15t8 -15q4 0 9 2q3 -18 28 -34 q7 -4 41 -24q11 -3 57 -37q36 -26 61 -27q21 0 39 17l100 36l-2 8l-198 102q-26 1 -41 -2q-31 65 -144 85q-78 2 -112 -35q-7 -16 -7 -44zM625 495q-2 -10 21 -11l45 -2q16 26 20 58q-5 9 -18 10q-7 0 -18 -4l-13 -28q-5 -19 -12 -21q-22 0 -25 -2zM638 365q0 -3 2 -5v-5 q20 37 24 59l1 15q-2 -13 -13 -29q-14 -40 -14 -35zM652 254q0 16 14 17q4 0 7 -1q8 -10 8 -18q0 -14 -13 -14q-16 0 -16 16zM713 344q56 -16 88 -23q6 12 10 15h17q-7 13 -13 17q18 13 30 14q-9 5 -19 20l19 12q-58 29 -96 29q-32 -62 -36 -84zM713 1008q-1 2 0 4 q0 9 13 10q8 -9 8 -19q0 -4 -1 -7q-5 0 -7 -1q-16 5 -13 13zM753 229q0 18 14 17h7q7 -4 7 -23l-7 -8q-2 -3 -4 -2q-3 0 -5 1q-11 11 -12 15zM774 463q66 -21 102 -29q-10 30 -10 19q0 10 12 11q15 1 17 4q-1 3 -8.5 10t-7.5 12l27 12q-60 26 -88 26q-7 0 -15 -1l-29 -53 v-11zM816 969q18 16 32 16l95 -51q9 -9 43 -28q28 -15 36 -29q0 -5 -10 -8t-11 -7q-12 -1 -35.5 19t-36.5 19l-4 16q-5 2 -10 2q-4 0 -6 -2l-11 16q-26 0 -82 37zM841 198q0 2 1 4q7 20 20 17q4 0 6 -8t4 -9q-9 -17 -16 -17q-3 0 -6 2q1 3 -4 7zM868 302h11q3 9 22 36 q16 21 15 33q-2 1 -7 3t-7 2q-3 -1 -4 -5l-30 -58v-11zM916 731l2 -79q5 -3 12 -1t8 8q-9 2 -9 10q0 3 2.5 12t2.5 13q0 8 -7 13q3 9 2 14zM922 416q0 -9 16 -9q11 1 22 20.5t17 22.5l11 20q-3 0 -11 6t-11 6q-5 -1 -8 -3q-36 -52 -36 -63zM952 947q12 9 23 9q13 0 38 -18 q28 -20 38 -22q24 -11 24 -18q-17 -10 -38 -11q-30 18 -85 60zM966 635q9 -5 16 -5q12 0 12 8q0 2 -3.5 8t-2.5 11q-20 -9 -22 -22zM1022 747q1 -22 11 -56q5 0 14 -2.5t14 -2.5q11 0 14 11v7q-41 37 -52 61q-1 -13 -1 -18zM1120 778q3 -3 7 -2q5 0 9 5q1 9 9.5 28t8.5 28 q0 5 -2 8q-24 3 -25 -8q-5 -38 -7 -59zM1276 677q0 275 91 451q85 164 198 165q113 0 198 -165q91 -177 91 -451q0 -167 -38 -307q-27 -99 -52 -147q-16 -31 -54 -79q-68 -82 -145 -82q-114 0 -198 165q-91 177 -91 450zM1352 677q0 -183 75 -353h-10q98 -106 148 -105 q51 0 149 105h-88q-26 105 -53 194q-12 41 -19 53q-13 22 -45 21l-2 -268h-77v689h116q141 0 141 -199q0 -115 -61 -192q37 -95 87 -277q66 152 66 332q0 272 -109 401q-50 60 -105 60q-57 0 -135 -99v2l-3 -5q-8 -10 -17 -23h8q-66 -161 -66 -336zM1418 1013q5 11 9 23l3 3 v-26h-12zM1427 324h3v-7zM1507 738h44q56 0 56 67q0 64 -61 65h-39v-132z" />
<glyph unicode="&#xb4;" horiz-adv-x="445" d="M35 949l222 285l156 -139l-347 -177z" />
<glyph unicode="&#xb8;" />
<glyph unicode="&#xbb;" />
<glyph unicode="&#xbf;" horiz-adv-x="697" d="M20 -31q0 102 85 200q55 64 141 168q73 89 73 191q0 10 -1.5 30.5t-1.5 30.5q0 89 85 88q99 0 100 -110q0 -125 -79 -248q-21 -34 -145 -190q-79 -99 -79 -157q0 -50 44 -78q39 -24 92 -23q82 0 130 78q41 66 41 155q0 16 -2 31q3 -4 166 -169q18 -18 27 -26q-7 1 -42 13 q-26 9 -42 8q-20 0 -23 -14q-16 -93 -92.5 -156.5t-171.5 -63.5q-120 0 -207 60q-99 68 -98 182zM304 820q0 42 29 69.5t71 27.5q43 0 71.5 -27.5t28.5 -69.5t-29 -69.5t-71 -27.5t-71 27.5t-29 69.5z" />
<glyph unicode="&#xc0;" horiz-adv-x="1118" d="M1 1q66 49 103 140l29 72l354 875q21 51 65 51q36 0 56 -45q51 -116 226 -548q47 -118 172 -405q39 -89 106 -140q-22 -15 -54 -15q-59 0 -125 54q-5 4 -8 0q-57 -56 -112 -56q-32 0 -55 17q47 41 62 82q2 9 10 54q0 7 -101 245h-359q-86 -213 -86 -245l9 -55 q15 -41 62 -81q-23 -18 -55 -18q-54 0 -111 56q-4 4 -10 0q-68 -54 -124 -54q-32 0 -54 16zM300 1396l171 133l190 -309l-44 -42zM422 517l267 3q-16 41 -38 87q-83 175 -104 225z" />
<glyph unicode="&#xc1;" horiz-adv-x="1113" d="M1 1q66 49 103 140l29 72l354 875q21 51 65 51q36 0 56 -45q51 -116 226 -548q47 -118 172 -405q39 -89 106 -140q-22 -15 -54 -15q-59 0 -125 54q-5 4 -8 0q-57 -56 -112 -56q-32 0 -55 17q47 41 62 82q2 9 10 54q0 7 -101 245h-359q-86 -213 -86 -245l9 -55 q15 -41 62 -81q-23 -18 -55 -18q-54 0 -111 56q-4 4 -10 0q-68 -54 -124 -54q-32 0 -54 16zM405 1274l221 286l156 -139l-347 -178zM422 517l267 3q-16 41 -38 87q-83 175 -104 225z" />
<glyph unicode="&#xc2;" horiz-adv-x="1113" d="M1 1q66 49 103 140l29 72l354 875q21 51 65 51q36 0 56 -45q51 -116 226 -548q47 -118 172 -405q39 -89 106 -140q-22 -15 -54 -15q-59 0 -125 54q-5 4 -8 0q-57 -56 -112 -56q-32 0 -55 17q47 41 62 82q2 9 10 54q0 7 -101 245h-359q-86 -213 -86 -245l9 -55 q15 -41 62 -81q-23 -18 -55 -18q-54 0 -111 56q-4 4 -10 0q-68 -54 -124 -54q-32 0 -54 16zM280 1281l266 178l263 -181l-106 -71l-157 149l-162 -151zM422 517l267 3q-16 41 -38 87q-83 175 -104 225z" />
<glyph unicode="&#xc3;" horiz-adv-x="1113" d="M1 1q66 49 103 140l29 72l354 875q21 51 65 51q36 0 56 -45q51 -116 226 -548q47 -118 172 -405q39 -89 106 -140q-22 -15 -54 -15q-59 0 -125 54q-5 4 -8 0q-57 -56 -112 -56q-32 0 -55 17q47 41 62 82q2 9 10 54q0 7 -101 245h-359q-86 -213 -86 -245l9 -55 q15 -41 62 -81q-23 -18 -55 -18q-54 0 -111 56q-4 4 -10 0q-68 -54 -124 -54q-32 0 -54 16zM269 1273q0 43 53 64q41 17 90 17q43 0 126 -21t126 -21q31 0 96 47l-2 -1q9 -27 9 -49q0 -85 -121 -85q-43 0 -126 22t-127 22q-36 0 -106 -44q-18 26 -18 49zM422 517l267 3 q-16 41 -38 87q-83 175 -104 225z" />
<glyph unicode="&#xc4;" horiz-adv-x="1115" d="M1 1q66 49 103 140l29 72l354 875q21 51 65 51q36 0 56 -45q51 -116 226 -548q47 -118 172 -405q39 -89 106 -140q-22 -15 -54 -15q-59 0 -125 54q-5 4 -8 0q-57 -56 -112 -56q-32 0 -55 17q47 41 62 82q2 9 10 54q0 7 -101 245h-359q-86 -213 -86 -245l9 -55 q15 -41 62 -81q-23 -18 -55 -18q-54 0 -111 56q-4 4 -10 0q-68 -54 -124 -54q-32 0 -54 16zM340 1368l47 11l31 38l33 -36l48 -8l-15 -46l18 -46l-48 -10l-30 -39l-33 36l-49 8l15 46zM422 517l267 3q-16 41 -38 87q-83 175 -104 225zM561 1374l48 10l30 39l33 -36l48 -8 l-14 -46l18 -46l-48 -11l-30 -37l-33 35l-49 8l15 46z" />
<glyph unicode="&#xc5;" horiz-adv-x="1120" d="M1 1q66 49 103 140l29 72l354 875q21 51 65 51q36 0 56 -45q51 -116 226 -548q47 -118 172 -405q39 -89 106 -140q-22 -15 -54 -15q-59 0 -125 54q-5 4 -8 0q-57 -56 -112 -56q-32 0 -55 17q47 41 62 82q2 9 10 54q0 7 -101 245h-359q-86 -213 -86 -245l9 -55 q15 -41 62 -81q-23 -18 -55 -18q-54 0 -111 56q-4 4 -10 0q-68 -54 -124 -54q-32 0 -54 16zM362 1221q0 55 37 91q9 9 80 55q42 27 96 27q92 0 138 -70q21 -33 21 -72q0 -62 -48 -101q-7 -6 -71 -48q-40 -26 -92 -26q-93 0 -140 72q-21 32 -21 72zM422 517l267 3 q-16 41 -38 87q-83 175 -104 225zM432 1252q0 -55 45 -89q41 -32 98 -33q30 0 56 10q32 33 32 81q0 55 -43 89q-41 31 -97 31q-32 0 -59 -10q-31 -32 -32 -79z" />
<glyph unicode="&#xc6;" />
<glyph unicode="&#xc7;" />
<glyph unicode="&#xc8;" horiz-adv-x="918" d="M87 -3v90q91 0 91 63v819q0 35 -18 67q-29 11 -69 18v82q62 0 184 -8t183 -8q246 0 306 66l119 -175l-46 -122q-39 70 -92 90q-39 15 -139 15h-267v-323h265q32 0 48 26q6 10 21 54h86v-305h-86q-14 37 -29 65q-33 18 -65 18h-240v-391q45 0 135 -7t136 -7q178 0 263 150 l30 -139l-109 -183q-16 22 -75 36q-47 11 -86 11zM217 1441l171 133l190 -310l-44 -41z" />
<glyph unicode="&#xc9;" horiz-adv-x="918" d="M87 -3v90q91 0 91 63v819q0 35 -18 67q-29 11 -69 18v82q62 0 184 -8t183 -8q246 0 306 66l119 -175l-46 -122q-39 70 -92 90q-39 15 -139 15h-267v-323h265q32 0 48 26q6 10 21 54h86v-305h-86q-14 37 -29 65q-33 18 -65 18h-240v-391q45 0 135 -7t136 -7q178 0 263 150 l30 -139l-109 -183q-16 22 -75 36q-47 11 -86 11zM379 1274l221 286l157 -139l-348 -178z" />
<glyph unicode="&#xca;" horiz-adv-x="918" d="M87 -3v90q91 0 91 63v819q0 35 -18 67q-29 11 -69 18v82q62 0 184 -8t183 -8q246 0 306 66l119 -175l-46 -122q-39 70 -92 90q-39 15 -139 15h-267v-323h265q32 0 48 26q6 10 21 54h86v-305h-86q-14 37 -29 65q-33 18 -65 18h-240v-391q45 0 135 -7t136 -7q178 0 263 150 l30 -139l-109 -183q-16 22 -75 36q-47 11 -86 11zM235 1321l266 178l264 -181l-106 -71l-157 149l-163 -151z" />
<glyph unicode="&#xcb;" horiz-adv-x="918" d="M87 -3v90q91 0 91 63v819q0 35 -18 67q-29 11 -69 18v82q62 0 184 -8t183 -8q246 0 306 66l119 -175l-46 -122q-39 70 -92 90q-39 15 -139 15h-267v-323h265q32 0 48 26q6 10 21 54h86v-305h-86q-14 37 -29 65q-33 18 -65 18h-240v-391q45 0 135 -7t136 -7q178 0 263 150 l30 -139l-109 -183q-16 22 -75 36q-47 11 -86 11zM303 1364l47 11l30 38l34 -36l48 -7l-15 -46l18 -46l-48 -10l-31 -39l-33 36l-48 7l15 47zM524 1371l48 10l30 38l33 -36l48 -7l-14 -47l17 -45l-47 -11l-31 -38l-33 36l-48 7l15 46z" />
<glyph unicode="&#xcc;" horiz-adv-x="455" d="M-16 1438l171 133l190 -309l-44 -42zM64 -1q42 32 72 82q24 39 28 64v848q-4 22 -28 63q-31 51 -72 82q18 16 47 15q49 0 118 -55q5 -4 9 0q58 58 117 58q32 0 56 -16q-98 -85 -108 -149v-845q10 -64 108 -149q-24 -16 -56 -17q-59 0 -117 58q-4 4 -9 0q-68 -55 -118 -55 q-29 0 -47 16z" />
<glyph unicode="&#xcd;" horiz-adv-x="455" d="M64 -1q42 32 72 82q24 39 28 64v848q-4 22 -28 63q-31 51 -72 82q18 16 47 15q49 0 118 -55q5 -4 9 0q58 58 117 58q32 0 56 -16q-98 -85 -108 -149v-845q10 -64 108 -149q-24 -16 -56 -17q-59 0 -117 58q-4 4 -9 0q-68 -55 -118 -55q-29 0 -47 16zM95 1274l222 286 l156 -139l-347 -178z" />
<glyph unicode="&#xce;" horiz-adv-x="460" d="M-37 1324l266 178l264 -181l-106 -72l-157 149l-162 -150zM64 -1q42 32 72 82q24 39 28 64v848q-4 22 -28 63q-31 51 -72 82q18 16 47 15q49 0 118 -55q5 -4 9 0q58 58 117 58q32 0 56 -16q-98 -85 -108 -149v-845q10 -64 108 -149q-24 -16 -56 -17q-59 0 -117 58 q-4 4 -9 0q-68 -55 -118 -55q-29 0 -47 16z" />
<glyph unicode="&#xcf;" horiz-adv-x="455" d="M39 1368l47 11l30 38l34 -36l48 -8l-15 -46l18 -46l-48 -10l-30 -39l-34 36l-48 8l15 46zM64 -1q42 32 72 82q24 39 28 64v848q-4 22 -28 63q-31 51 -72 82q18 16 47 15q49 0 118 -55q5 -4 9 0q58 58 117 58q32 0 56 -16q-98 -85 -108 -149v-845q10 -64 108 -149 q-24 -16 -56 -17q-59 0 -117 58q-4 4 -9 0q-68 -55 -118 -55q-29 0 -47 16zM260 1374l48 10l30 39l33 -36l48 -8l-14 -46l17 -46l-47 -11l-31 -37l-33 35l-48 8l15 46z" />
<glyph unicode="&#xd1;" horiz-adv-x="1209" d="M79 0q41 30 73 82q25 41 29 62v835q0 51 -36 61l-57 14v80h311l479 -702l1 556q-4 22 -31 62q-33 50 -75 82q26 16 62 15q65 0 130 -55q5 -4 9 0q61 61 133 61q34 0 60 -13q-114 -98 -123 -152v-837q12 -66 112 -152q-27 -13 -62 -13q-71 0 -132 61q-4 4 -9 0 q-73 -58 -130 -59q-29 0 -48 13q42 32 73 84q24 41 29 65v32l-531 759v-795q12 -66 114 -154q-27 -13 -61 -13q-72 0 -133 60q-4 4 -9 0q-65 -55 -124 -55q-33 0 -54 16zM343 1308q0 43 54 65q41 17 90 16q43 0 126 -21t125 -21q31 0 96 47h-2q9 -27 9 -50q0 -85 -120 -84 q-43 0 -126.5 21.5t-126.5 21.5q-36 0 -107 -43q-18 26 -18 48z" />
<glyph unicode="&#xd2;" horiz-adv-x="1229" d="M106 603q0 264 163 418q160 150 425 151q273 0 429 -185q139 -165 139 -414q0 -107 -37 -218q-127 -385 -583 -385q-208 0 -349 124q-137 120 -174 328q-14 77 -13 181zM271 593q0 -484 419 -484q190 0 304 155q97 134 97 311q0 192 -95 317q-106 139 -304 139 q-106 0 -201 -45q-104 -49 -153 -134q-66 -114 -67 -259zM446 1438l171 133l190 -309l-44 -42z" />
<glyph unicode="&#xd3;" horiz-adv-x="1229" d="M106 603q0 264 163 418q160 150 425 151q273 0 429 -185q139 -165 139 -414q0 -107 -37 -218q-127 -385 -583 -385q-208 0 -349 124q-137 120 -174 328q-14 77 -13 181zM271 593q0 -484 419 -484q190 0 304 155q97 134 97 311q0 192 -95 317q-106 139 -304 139 q-106 0 -201 -45q-104 -49 -153 -134q-66 -114 -67 -259zM556 1274l221 286l156 -139l-347 -178z" />
<glyph unicode="&#xd4;" horiz-adv-x="1229" d="M106 603q0 264 163 418q160 150 425 151q273 0 429 -185q139 -165 139 -414q0 -107 -37 -218q-127 -385 -583 -385q-208 0 -349 124q-137 120 -174 328q-14 77 -13 181zM271 593q0 -484 419 -484q190 0 304 155q97 134 97 311q0 192 -95 317q-106 139 -304 139 q-106 0 -201 -45q-104 -49 -153 -134q-66 -114 -67 -259zM433 1321l266 178l264 -181l-106 -71l-157 149l-163 -151z" />
<glyph unicode="&#xd5;" horiz-adv-x="1229" d="M106 603q0 264 163 418q160 150 425 151q273 0 429 -185q139 -165 139 -414q0 -107 -37 -218q-127 -385 -583 -385q-208 0 -349 124q-137 120 -174 328q-14 77 -13 181zM271 593q0 -484 419 -484q190 0 304 155q97 134 97 311q0 192 -95 317q-106 139 -304 139 q-106 0 -201 -45q-104 -49 -153 -134q-66 -114 -67 -259zM414 1308q0 43 54 65q41 17 90 16q43 0 126 -21t125 -21q31 0 97 47h-2q9 -27 8 -50q0 -85 -120 -84q-43 0 -126.5 21.5t-126.5 21.5q-36 0 -107 -43q-18 26 -18 48z" />
<glyph unicode="&#xd6;" horiz-adv-x="1229" d="M106 603q0 264 163 418q160 150 425 151q273 0 429 -185q139 -165 139 -414q0 -107 -37 -218q-127 -385 -583 -385q-208 0 -349 124q-137 120 -174 328q-14 77 -13 181zM271 593q0 -484 419 -484q190 0 304 155q97 134 97 311q0 192 -95 317q-106 139 -304 139 q-106 0 -201 -45q-104 -49 -153 -134q-66 -114 -67 -259zM497 1364l47 11l31 38l33 -36l48 -7l-15 -46l18 -46l-48 -10l-30 -39l-33 36l-49 7l15 47zM718 1371l48 10l30 38l33 -36l48 -7l-14 -47l18 -45l-48 -11l-30 -38l-33 36l-49 7l15 46z" />
<glyph unicode="&#xd8;" />
<glyph unicode="&#xd9;" horiz-adv-x="1308" d="M63 1134q24 16 58 15q58 0 127 -55q5 -4 9 0q61 61 132 61q35 0 62 -13q-114 -98 -123 -151v-601q0 -143 120 -214q97 -57 251 -57q272 0 343 168q12 29 12 62v649q-4 24 -30 65q-32 53 -74 84q26 16 62 16q65 0 130 -54q5 -4 9 0q61 60 133 60q34 0 61 -13 q-115 -99 -124 -152v-645q0 -182 -165 -287q-148 -94 -368 -94q-337 0 -470 216q-58 94 -58 192v606q-5 24 -27 61q-29 49 -70 81zM430 1438l171 133l190 -309l-44 -42z" />
<glyph unicode="&#xda;" horiz-adv-x="1308" d="M63 1134q24 16 58 15q58 0 127 -55q5 -4 9 0q61 61 132 61q35 0 62 -13q-114 -98 -123 -151v-601q0 -143 120 -214q97 -57 251 -57q272 0 343 168q12 29 12 62v649q-4 24 -30 65q-32 53 -74 84q26 16 62 16q65 0 130 -54q5 -4 9 0q61 60 133 60q34 0 61 -13 q-115 -99 -124 -152v-645q0 -182 -165 -287q-148 -94 -368 -94q-337 0 -470 216q-58 94 -58 192v606q-5 24 -27 61q-29 49 -70 81zM570 1271l221 286l157 -140l-348 -177z" />
<glyph unicode="&#xdb;" horiz-adv-x="1308" d="M63 1134q24 16 58 15q58 0 127 -55q5 -4 9 0q61 61 132 61q35 0 62 -13q-114 -98 -123 -151v-601q0 -143 120 -214q97 -57 251 -57q272 0 343 168q12 29 12 62v649q-4 24 -30 65q-32 53 -74 84q26 16 62 16q65 0 130 -54q5 -4 9 0q61 60 133 60q34 0 61 -13 q-115 -99 -124 -152v-645q0 -182 -165 -287q-148 -94 -368 -94q-337 0 -470 216q-58 94 -58 192v606q-5 24 -27 61q-29 49 -70 81zM447 1321l266 178l264 -181l-107 -71l-157 149l-162 -151z" />
<glyph unicode="&#xdc;" horiz-adv-x="1308" d="M63 1134q24 16 58 15q58 0 127 -55q5 -4 9 0q61 61 132 61q35 0 62 -13q-114 -98 -123 -151v-601q0 -143 120 -214q97 -57 251 -57q272 0 343 168q12 29 12 62v649q-4 24 -30 65q-32 53 -74 84q26 16 62 16q65 0 130 -54q5 -4 9 0q61 60 133 60q34 0 61 -13 q-115 -99 -124 -152v-645q0 -182 -165 -287q-148 -94 -368 -94q-337 0 -470 216q-58 94 -58 192v606q-5 24 -27 61q-29 49 -70 81zM516 1364l47 11l31 38l33 -36l48 -7l-15 -46l17 -46l-47 -10l-30 -39l-34 36l-48 7l15 47zM737 1371l48 10l30 38l33 -36l48 -7l-14 -47 l17 -45l-47 -11l-30 -38l-34 36l-48 7l15 46z" />
<glyph unicode="&#xdd;" horiz-adv-x="1033" d="M-4 1112q22 16 55 16q56 0 124 -55q5 -4 9 0q58 56 112 57q32 0 55 -18q-58 -50 -59 -87q0 -6 2 -13q49 -63 256 -339q259 326 259 331q1 9 1 16q0 43 -57 92q23 17 55 17q55 0 112 -56q4 -4 9 0q66 54 124 54q32 0 54 -15q-75 -57 -126 -143q-39 -51 -348 -449v-375 q62 -93 125 -148q-28 -17 -68 -17q-68 0 -126 58h-9q-65 -54 -128 -54q-38 0 -60 15q28 21 62 65q17 22 28 46q7 14 13 31l-2 374q-13 19 -264 361q-85 116 -140 174q-24 25 -68 62zM424 1254l222 286l156 -140l-347 -177z" />
<glyph unicode="&#xdf;" />
<glyph unicode="&#xe0;" horiz-adv-x="896" d="M-11 16q46 35 69 71q12 20 39 88l256 632q19 47 61 47q37 0 56 -42q32 -71 162 -396q27 -68 124 -291q26 -61 89 -109q-38 -26 -66 -27q-45 0 -93 37q-42 -38 -84 -38q-28 0 -65 27q45 40 55 65q1 7 6 36q-1 5 -67 159h-237q-55 -137 -57 -159l6 -37q10 -24 55 -63 q-37 -28 -65 -29q-42 0 -85 39q-48 -37 -92 -38q-28 0 -67 28zM200 1115l171 133l190 -309l-44 -42zM344 405l145 2q-9 22 -18 40q-43 89 -60 128z" />
<glyph unicode="&#xe1;" horiz-adv-x="896" d="M-11 16q46 35 69 71q12 20 39 88l256 632q19 47 61 47q37 0 56 -42q32 -71 162 -396q27 -68 124 -291q26 -61 89 -109q-38 -26 -66 -27q-45 0 -93 37q-42 -38 -84 -38q-28 0 -65 27q45 40 55 65q1 7 6 36q-1 5 -67 159h-237q-55 -137 -57 -159l6 -37q10 -24 55 -63 q-37 -28 -65 -29q-42 0 -85 39q-48 -37 -92 -38q-28 0 -67 28zM319 949l222 285l156 -139l-347 -177zM344 405l145 2q-9 22 -18 40q-43 89 -60 128z" />
<glyph unicode="&#xe2;" horiz-adv-x="873" d="M-11 16q46 35 69 71q12 20 39 88l256 632q19 47 61 47q37 0 56 -42q32 -71 162 -396q27 -68 124 -291q26 -61 89 -109q-38 -26 -66 -27q-45 0 -93 37q-42 -38 -84 -38q-28 0 -65 27q45 40 55 65q1 7 6 36q-1 5 -67 159h-237q-55 -137 -57 -159l6 -37q10 -24 55 -63 q-37 -28 -65 -29q-42 0 -85 39q-48 -37 -92 -38q-28 0 -67 28zM150 994l266 178l264 -181l-106 -72l-157 149l-163 -150zM344 405l145 2q-9 22 -18 40q-43 89 -60 128z" />
<glyph unicode="&#xe3;" horiz-adv-x="870" d="M-11 16q46 35 69 71q12 20 39 88l256 632q19 47 61 47q37 0 56 -42q32 -71 162 -396q27 -68 124 -291q26 -61 89 -109q-38 -26 -66 -27q-45 0 -93 37q-42 -38 -84 -38q-28 0 -65 27q45 40 55 65q1 7 6 36q-1 5 -67 159h-237q-55 -137 -57 -159l6 -37q10 -24 55 -63 q-37 -28 -65 -29q-42 0 -85 39q-48 -37 -92 -38q-28 0 -67 28zM183 990q0 43 54 64q41 17 90 17q43 0 126 -21t126 -21q31 0 96 47l-2 -1q9 -27 9 -49q0 -85 -121 -85q-43 0 -126.5 22t-126.5 22q-36 0 -106 -44q-18 26 -19 49zM344 405l145 2q-9 22 -18 40q-43 89 -60 128z " />
<glyph unicode="&#xe4;" horiz-adv-x="873" d="M-11 16q46 35 69 71q12 20 39 88l256 632q19 47 61 47q37 0 56 -42q32 -71 162 -396q27 -68 124 -291q26 -61 89 -109q-38 -26 -66 -27q-45 0 -93 37q-42 -38 -84 -38q-28 0 -65 27q45 40 55 65q1 7 6 36q-1 5 -67 159h-237q-55 -137 -57 -159l6 -37q10 -24 55 -63 q-37 -28 -65 -29q-42 0 -85 39q-48 -37 -92 -38q-28 0 -67 28zM229 1050l47 11l31 37l33 -35l48 -8l-15 -46l18 -46l-48 -10l-30 -39l-33 36l-49 8l15 46zM344 405l145 2q-9 22 -18 40q-43 89 -60 128zM450 1056l48 10l30 39l33 -36l48 -8l-14 -46l18 -46l-48 -11l-30 -38 l-33 36l-49 8l15 46z" />
<glyph unicode="&#xe5;" horiz-adv-x="896" d="M-11 16q46 35 69 71q12 20 39 88l256 632q19 47 61 47q37 0 56 -42q32 -71 162 -396q27 -68 124 -291q26 -61 89 -109q-38 -26 -66 -27q-45 0 -93 37q-42 -38 -84 -38q-28 0 -65 27q45 40 55 65q1 7 6 36q-1 5 -67 159h-237q-55 -137 -57 -159l6 -37q10 -24 55 -63 q-37 -28 -65 -29q-42 0 -85 39q-48 -37 -92 -38q-28 0 -67 28zM234 1063q0 55 37 90q9 9 80 56q42 27 96 27q92 0 138 -71q21 -32 21 -71q0 -62 -48 -102q-7 -6 -71 -47q-40 -26 -92 -26q-93 0 -140 72q-21 32 -21 72zM305 1094q0 -55 44 -90q41 -32 98 -32q30 0 56 9 q32 34 32 82q0 55 -43 89q-41 31 -97 31q-32 0 -59 -10q-31 -32 -31 -79zM344 405l145 2q-9 22 -18 40q-43 89 -60 128z" />
<glyph unicode="&#xe6;" />
<glyph unicode="&#xe7;" />
<glyph unicode="&#xe8;" horiz-adv-x="690" d="M66 -3v98q64 0 64 29v592q0 18 -8 35q-18 6 -54 14v88q46 0 138.5 -5.5t138.5 -5.5q167 0 219 58l101 -151l-48 -130q-37 68 -65 85q-24 14 -101 14h-174v-201h172q16 0 21 13q4 9 16 45h89v-254h-88q-12 33 -21 52q-18 9 -36 9h-153v-251q20 -1 88 -6q51 -4 88 -4 q117 0 194 138l31 -149l-93 -159q-34 47 -116 47zM131 1115l170 133l190 -309l-44 -42z" />
<glyph unicode="&#xe9;" horiz-adv-x="721" d="M66 -3v98q64 0 64 29v592q0 18 -8 35q-18 6 -54 14v88q46 0 138.5 -5.5t138.5 -5.5q167 0 219 58l101 -151l-48 -130q-37 68 -65 85q-24 14 -101 14h-174v-201h172q16 0 21 13q4 9 16 45h89v-254h-88q-12 33 -21 52q-18 9 -36 9h-153v-251q20 -1 88 -6q51 -4 88 -4 q117 0 194 138l31 -149l-93 -159q-34 47 -116 47zM200 949l221 285l156 -139l-347 -177z" />
<glyph unicode="&#xea;" horiz-adv-x="747" d="M66 -3v98q64 0 64 29v592q0 18 -8 35q-18 6 -54 14v88q46 0 138.5 -5.5t138.5 -5.5q167 0 219 58l101 -151l-48 -130q-37 68 -65 85q-24 14 -101 14h-174v-201h172q16 0 21 13q4 9 16 45h89v-254h-88q-12 33 -21 52q-18 9 -36 9h-153v-251q20 -1 88 -6q51 -4 88 -4 q117 0 194 138l31 -149l-93 -159q-34 47 -116 47zM102 994l266 178l263 -181l-106 -72l-157 149l-162 -150z" />
<glyph unicode="&#xeb;" horiz-adv-x="732" d="M66 -3v98q64 0 64 29v592q0 18 -8 35q-18 6 -54 14v88q46 0 138.5 -5.5t138.5 -5.5q167 0 219 58l101 -151l-48 -130q-37 68 -65 85q-24 14 -101 14h-174v-201h172q16 0 21 13q4 9 16 45h89v-254h-88q-12 33 -21 52q-18 9 -36 9h-153v-251q20 -1 88 -6q51 -4 88 -4 q117 0 194 138l31 -149l-93 -159q-34 47 -116 47zM169 1050l48 11l30 37l33 -35l48 -8l-15 -46l19 -46l-48 -10l-31 -39l-33 36l-48 8l15 46zM391 1056l48 10l29 39l34 -36l48 -8l-15 -46l18 -46l-47 -11l-31 -38l-33 36l-48 8l15 46z" />
<glyph unicode="&#xec;" horiz-adv-x="334" d="M-81 1115l170 133l191 -309l-44 -42z" />
<glyph unicode="&#xed;" horiz-adv-x="468" d="M55 949l221 285l156 -139l-347 -177z" />
<glyph unicode="&#xee;" horiz-adv-x="490" d="M-95 994l266 178l264 -181l-107 -72l-157 149l-162 -150z" />
<glyph unicode="&#xef;" horiz-adv-x="411" d="M-35 1050l47 11l31 37l33 -35l48 -8l-15 -46l18 -46l-48 -10l-30 -39l-33 36l-48 8l14 46zM186 1056l48 10l30 39l33 -36l48 -8l-14 -46l18 -46l-48 -11l-30 -38l-33 36l-48 8l14 46z" />
<glyph unicode="&#xf1;" horiz-adv-x="922" d="M47 16q73 53 86 106v601q0 24 -15 28l-52 14v86h248l321 -471l1 348q-12 49 -90 106q43 26 74 26q49 0 96 -36q46 41 100 41q28 0 73 -22q-95 -82 -102 -115l-1 -602q8 -41 95 -115q-45 -22 -74 -22q-53 0 -99 42q-51 -40 -97 -40q-26 0 -63 24q74 56 86 111v16l-350 502 v-521q9 -41 95 -117q-45 -22 -73 -22q-54 0 -100 41q-47 -37 -92 -37q-29 0 -67 28zM192 990q0 43 54 64q41 17 90 17q43 0 126 -21t125 -21q31 0 97 47l-2 -1q9 -27 8 -49q0 -85 -120 -85q-43 0 -126.5 22t-126.5 22q-36 0 -107 -44q-18 26 -18 49z" />
<glyph unicode="&#xf2;" horiz-adv-x="958" d="M79 451q0 197 123 314q120 114 318 113q198 0 314 -126q112 -122 112 -322q0 -80 -27 -163q-95 -290 -436 -289q-157 0 -263 93q-104 91 -131 247q-10 58 -10 133zM231 444q0 -334 287 -334q125 0 202 100q71 92 71 221q0 137 -67 221q-72 93 -205 92q-173 0 -242 -121 q-45 -79 -46 -179zM283 1115l170 133l191 -309l-44 -42z" />
<glyph unicode="&#xf3;" horiz-adv-x="958" d="M79 451q0 197 123 314q120 114 318 113q198 0 314 -126q112 -122 112 -322q0 -80 -27 -163q-95 -290 -436 -289q-157 0 -263 93q-104 91 -131 247q-10 58 -10 133zM231 444q0 -334 287 -334q125 0 202 100q71 92 71 221q0 137 -67 221q-72 93 -205 92q-173 0 -242 -121 q-45 -79 -46 -179zM354 949l221 285l157 -139l-348 -177z" />
<glyph unicode="&#xf4;" horiz-adv-x="956" d="M79 451q0 197 123 314q120 114 318 113q198 0 314 -126q112 -122 112 -322q0 -80 -27 -163q-95 -290 -436 -289q-157 0 -263 93q-104 91 -131 247q-10 58 -10 133zM231 444q0 -334 287 -334q125 0 202 100q71 92 71 221q0 137 -67 221q-72 93 -205 92q-173 0 -242 -121 q-45 -79 -46 -179zM252 994l266 178l264 -181l-106 -72l-157 149l-162 -150z" />
<glyph unicode="&#xf5;" horiz-adv-x="959" d="M79 451q0 197 123 314q120 114 318 113q198 0 314 -126q112 -122 112 -322q0 -80 -27 -163q-95 -290 -436 -289q-157 0 -263 93q-104 91 -131 247q-10 58 -10 133zM231 444q0 -334 287 -334q125 0 202 100q71 92 71 221q0 137 -67 221q-72 93 -205 92q-173 0 -242 -121 q-45 -79 -46 -179zM254 990q0 43 54 64q41 17 90 17q43 0 126 -21t126 -21q31 0 96 47l-2 -1q9 -27 9 -49q0 -85 -121 -85q-43 0 -126.5 22t-126.5 22q-36 0 -106 -44q-18 26 -19 49z" />
<glyph unicode="&#xf6;" horiz-adv-x="959" d="M79 451q0 197 123 314q120 114 318 113q198 0 314 -126q112 -122 112 -322q0 -80 -27 -163q-95 -290 -436 -289q-157 0 -263 93q-104 91 -131 247q-10 58 -10 133zM231 444q0 -334 287 -334q125 0 202 100q71 92 71 221q0 137 -67 221q-72 93 -205 92q-173 0 -242 -121 q-45 -79 -46 -179zM316 1050l47 11l31 37l33 -35l48 -8l-15 -46l18 -46l-48 -10l-30 -39l-33 36l-48 8l15 46zM537 1056l48 10l30 39l33 -36l48 -8l-14 -46l18 -46l-48 -11l-30 -38l-33 36l-48 8l15 46z" />
<glyph unicode="&#xf8;" />
<glyph unicode="&#xf9;" horiz-adv-x="974" d="M35 836q41 26 71 26q45 0 94 -37q46 42 100 42q28 0 74 -22q-96 -82 -103 -115v-433q0 -179 254 -179q186 0 232 111q7 18 8 39v467q-11 53 -88 111q44 26 74 26q49 0 97 -36q46 41 100 40q29 1 74 -21q-96 -83 -103 -115v-465q0 -147 -135 -226q-112 -66 -268 -66 q-254 0 -354 165q-44 72 -44 147v435q-12 51 -83 106zM232 1115l171 133l190 -309l-44 -42z" />
<glyph unicode="&#xfa;" horiz-adv-x="979" d="M35 836q41 26 71 26q45 0 94 -37q46 42 100 42q28 0 74 -22q-96 -82 -103 -115v-433q0 -179 254 -179q186 0 232 111q7 18 8 39v467q-11 53 -88 111q44 26 74 26q49 0 97 -36q46 41 100 40q29 1 74 -21q-96 -83 -103 -115v-465q0 -147 -135 -226q-112 -66 -268 -66 q-254 0 -354 165q-44 72 -44 147v435q-12 51 -83 106zM422 949l221 285l156 -139l-347 -177z" />
<glyph unicode="&#xfb;" horiz-adv-x="980" d="M35 836q41 26 71 26q45 0 94 -37q46 42 100 42q28 0 74 -22q-96 -82 -103 -115v-433q0 -179 254 -179q186 0 232 111q7 18 8 39v467q-11 53 -88 111q44 26 74 26q49 0 97 -36q46 41 100 40q29 1 74 -21q-96 -83 -103 -115v-465q0 -147 -135 -226q-112 -66 -268 -66 q-254 0 -354 165q-44 72 -44 147v435q-12 51 -83 106zM246 994l266 178l264 -181l-107 -72l-157 149l-162 -150z" />
<glyph unicode="&#xfc;" horiz-adv-x="985" d="M35 836q41 26 71 26q45 0 94 -37q46 42 100 42q28 0 74 -22q-96 -82 -103 -115v-433q0 -179 254 -179q186 0 232 111q7 18 8 39v467q-11 53 -88 111q44 26 74 26q49 0 97 -36q46 41 100 40q29 1 74 -21q-96 -83 -103 -115v-465q0 -147 -135 -226q-112 -66 -268 -66 q-254 0 -354 165q-44 72 -44 147v435q-12 51 -83 106zM319 1050l48 11l30 37l33 -35l48 -8l-14 -46l18 -46l-48 -10l-31 -39l-33 36l-48 8l15 46zM541 1056l48 10l30 39l33 -36l48 -8l-14 -46l17 -46l-47 -11l-31 -38l-33 36l-48 8l15 46z" />
<glyph unicode="&#xfd;" horiz-adv-x="785" d="M-14 820q38 26 67 26q43 0 92 -37q43 39 84 38q28 0 65 -28q-51 -45 -51 -63v-3q37 -47 170 -224l170 212q1 7 1 11q0 24 -51 67q38 28 65 28q43 0 85 -38q47 37 92 36q28 0 67 -26q-70 -53 -105 -113q-30 -39 -248 -321v-260q43 -63 101 -113q-43 -26 -77 -27 q-52 0 -97 42q-37 -39 -92 -39q-32 0 -72 26q60 43 86 107v261q-5 7 -188 257q-60 83 -99 124q-14 14 -65 57zM289 949l221 285l157 -139l-348 -177z" />
<glyph unicode="&#xff;" horiz-adv-x="785" d="M-14 820q38 26 67 26q43 0 92 -37q43 39 84 38q28 0 65 -28q-51 -45 -51 -63v-3q37 -47 170 -224l170 212q1 7 1 11q0 24 -51 67q38 28 65 28q43 0 85 -38q47 37 92 36q28 0 67 -26q-70 -53 -105 -113q-30 -39 -248 -321v-260q43 -63 101 -113q-43 -26 -77 -27 q-52 0 -97 42q-37 -39 -92 -39q-32 0 -72 26q60 43 86 107v261q-5 7 -188 257q-60 83 -99 124q-14 14 -65 57zM231 1050l48 11l30 37l33 -35l49 -8l-15 -46l18 -46l-48 -10l-31 -39l-33 36l-48 8l15 46zM453 1056l48 10l30 39l33 -36l48 -8l-14 -46l17 -46l-47 -11l-31 -38 l-33 36l-48 8l15 46z" />
<glyph unicode="&#x152;" />
<glyph unicode="&#x153;" />
<glyph unicode="&#x178;" horiz-adv-x="1033" d="M-4 1112q22 16 55 16q56 0 124 -55q5 -4 9 0q58 56 112 57q32 0 55 -18q-58 -50 -59 -87q0 -6 2 -13q49 -63 256 -339q259 326 259 331q1 9 1 16q0 43 -57 92q23 17 55 17q55 0 112 -56q4 -4 9 0q66 54 124 54q32 0 54 -15q-75 -57 -126 -143q-39 -51 -348 -449v-375 q62 -93 125 -148q-28 -17 -68 -17q-68 0 -126 58h-9q-65 -54 -128 -54q-38 0 -60 15q28 21 62 65q17 22 28 46q7 14 13 31l-2 374q-13 19 -264 361q-85 116 -140 174q-24 25 -68 62zM363 1368l48 11l30 38l33 -36l48 -8l-14 -46l17 -46l-47 -10l-31 -39l-33 36l-48 8l15 46z M585 1374l48 10l30 39l33 -36l48 -8l-14 -46l17 -46l-47 -11l-31 -37l-33 35l-48 8l15 46z" />
<glyph unicode="&#x2c6;" horiz-adv-x="594" d="M9 994l266 178l264 -181l-106 -72l-157 149l-162 -150z" />
<glyph unicode="&#x2dc;" horiz-adv-x="580" d="M16 990q0 43 53 64q41 17 90 17q43 0 126 -21t126 -21q31 0 96 47l-2 -1q9 -27 9 -49q0 -85 -121 -85q-43 0 -126.5 22t-126.5 22q-36 0 -106 -44q-18 26 -18 49z" />
<glyph unicode="&#x2000;" horiz-adv-x="787" />
<glyph unicode="&#x2001;" horiz-adv-x="1574" />
<glyph unicode="&#x2002;" horiz-adv-x="787" />
<glyph unicode="&#x2003;" horiz-adv-x="1574" />
<glyph unicode="&#x2004;" horiz-adv-x="524" />
<glyph unicode="&#x2005;" horiz-adv-x="393" />
<glyph unicode="&#x2006;" horiz-adv-x="262" />
<glyph unicode="&#x2007;" horiz-adv-x="262" />
<glyph unicode="&#x2008;" horiz-adv-x="196" />
<glyph unicode="&#x2009;" horiz-adv-x="314" />
<glyph unicode="&#x200a;" horiz-adv-x="87" />
<glyph unicode="&#x2010;" horiz-adv-x="395" d="M67 378v70h290v-70h-290z" />
<glyph unicode="&#x2011;" horiz-adv-x="395" d="M67 378v70h290v-70h-290z" />
<glyph unicode="&#x2012;" horiz-adv-x="395" d="M67 378v70h290v-70h-290z" />
<glyph unicode="&#x2013;" horiz-adv-x="1129" d="M67 378v70h1024v-70h-1024z" />
<glyph unicode="&#x2014;" horiz-adv-x="2153" d="M67 378v70h2048v-70h-2048z" />
<glyph unicode="&#x2018;" horiz-adv-x="341" d="M78 875q0 84 63 176q19 28 81 84q56 -18 56 -43q-11 -17 -36 -73q-28 -62 -28 -73q7 0 17 -2q57 -25 57 -79q0 -39 -29.5 -64t-69.5 -25q-111 0 -111 99z" />
<glyph unicode="&#x2019;" horiz-adv-x="335" d="M78 1046q0 39 29.5 64t69.5 25q111 0 111 -99q0 -84 -63 -176q-19 -28 -81 -84q-56 18 -56 42q10 15 37 74q28 62 27 72q-7 0 -17 2q-57 25 -57 80z" />
<glyph unicode="&#x201c;" horiz-adv-x="567" d="M78 875q0 85 62 176q19 28 83 84q55 -18 55 -43q-12 -20 -37 -73q-28 -60 -28 -73q7 0 18 -2q57 -25 57 -79q0 -39 -30 -64t-70 -25q-110 0 -110 99zM304 875q0 84 63 176q19 28 81 84q56 -18 56 -43q-11 -17 -36 -73q-28 -62 -28 -73q7 0 18 -2q56 -25 56 -79 q0 -39 -29.5 -64t-69.5 -25q-111 0 -111 99z" />
<glyph unicode="&#x201d;" horiz-adv-x="561" d="M78 1046q0 39 29.5 64t69.5 25q111 0 111 -99q0 -84 -63 -176q-19 -28 -81 -84q-56 18 -56 42q10 15 37 74q28 62 27 72q-7 0 -17 2q-57 25 -57 80zM305 1046q0 39 29.5 64t69.5 25q110 0 110 -99q0 -85 -62 -176q-19 -28 -82 -84q-55 18 -56 42q12 18 37 74q28 61 28 72 q-7 0 -18 2q-57 25 -56 80z" />
<glyph unicode="&#x2026;" />
<glyph unicode="&#x202f;" horiz-adv-x="314" />
<glyph unicode="&#x2039;" />
<glyph unicode="&#x203a;" />
<glyph unicode="&#x205f;" horiz-adv-x="393" />
<glyph unicode="&#x2122;" />
<glyph unicode="&#x25fc;" horiz-adv-x="866" d="M0 0v866h866v-866h-866z" />
</font>
</defs>
</svg>
